<svg version="1.2" xmlns="http://www.w3.org/2000/svg" viewBox="0 0 69 32" width="700" height="325">
	<style>
		.s0 { fill: #ffffff } 
	</style>
	<g id="Layer 1">
		<path id="&lt;Compound Path&gt;" class="s0" d="m14.33 12.58c-0.64-0.64-1.51-1.03-2.48-1.03v1.97q-0.7-0.95-1.86-1.57-1.15-0.62-2.7-0.62-1.76 0-3.19 0.87-1.43 0.87-2.27 2.49-0.83 1.61-0.83 3.7 0 2.12 0.83 3.75 0.84 1.63 2.27 2.52 1.43 0.9 3.17 0.9 1.54 0 2.72-0.63 0.59-0.32 1.06-0.72 0.46-0.41 0.8-0.89c0 1.11 0.9 2.01 2.01 2.01h1.5v-10.27c0-0.97-0.4-1.85-1.03-2.48zm-2.98 8.04q-0.5 0.91-1.34 1.39-0.85 0.49-1.82 0.49-0.95 0-1.78-0.5-0.83-0.5-1.34-1.43-0.51-0.93-0.51-2.18 0-1.24 0.51-2.15 0.51-0.91 1.33-1.38 0.82-0.47 1.79-0.47 0.97 0 1.82 0.48 0.84 0.49 1.34 1.4 0.5 0.9 0.5 2.17 0 1.27-0.5 2.18z"/>
		<path id="&lt;Compound Path&gt;" class="s0" d="m27.43 24.68q-1.59-0.89-2.5-2.51-0.9-1.61-0.9-3.73 0-2.11 0.93-3.73 0.93-1.62 2.55-2.5 1.62-0.88 3.61-0.88 1.99 0 3.61 0.88 1.61 0.88 2.54 2.5 0.94 1.62 0.94 3.73 0 2.12-0.96 3.73-0.96 1.62-2.59 2.51-1.63 0.88-3.64 0.88-1.99 0-3.59-0.88zm5.37-2.62q0.83-0.46 1.33-1.38 0.49-0.92 0.49-2.24 0-1.96-1.03-3.02-1.03-1.06-2.52-1.06-1.5 0-2.5 1.06-1.01 1.06-1.01 3.02 0 1.97 0.98 3.03 0.98 1.05 2.48 1.05 0.94 0 1.78-0.46z"/>
		<path id="&lt;Compound Path&gt;" class="s0" d="m42.22 24.68q-1.59-0.89-2.5-2.51-0.91-1.61-0.91-3.73 0-2.11 0.93-3.73 0.94-1.62 2.55-2.5 1.62-0.88 3.61-0.88 1.99 0 3.61 0.88 1.62 0.88 2.55 2.5 0.93 1.62 0.93 3.73 0 2.12-0.96 3.73-0.95 1.62-2.58 2.51-1.63 0.88-3.65 0.88-1.99 0-3.58-0.88zm5.36-2.62q0.83-0.46 1.33-1.38 0.5-0.92 0.5-2.24 0-1.96-1.03-3.02-1.04-1.06-2.53-1.06-1.49 0-2.5 1.06-1.01 1.06-1.01 3.02 0 1.97 0.99 3.03 0.98 1.05 2.47 1.05 0.95 0 1.78-0.46z"/>
		<path id="&lt;Compound Path&gt;" class="s0" d="m66.89 7.96c-0.57-0.57-1.33-0.95-2.18-1.02q-0.13-0.01-0.26-0.02-0.03 0-0.06 0v6.55q-0.72-0.97-1.94-1.56-1.22-0.58-2.56-0.58-1.77 0-3.21 0.87-1.44 0.87-2.28 2.49-0.83 1.61-0.83 3.7 0 2.12 0.83 3.75 0.84 1.63 2.28 2.52 1.44 0.9 3.18 0.9 1.55 0 2.72-0.62 0.58-0.31 1.03-0.73 0.46-0.41 0.78-0.92c0 1.13 0.92 2.04 2.04 2.04h1.5v-14.87c0-0.98-0.4-1.86-1.04-2.5zm-2.97 12.66q-0.5 0.91-1.34 1.39-0.85 0.49-1.82 0.49-0.95 0-1.78-0.5-0.83-0.5-1.34-1.43-0.51-0.93-0.51-2.18 0-1.24 0.51-2.15 0.51-0.91 1.33-1.38 0.82-0.47 1.79-0.47 0.97 0 1.82 0.48 0.84 0.49 1.34 1.4 0.5 0.9 0.5 2.17 0 1.27-0.5 2.18z"/>
		<path id="&lt;Path&gt;" class="s0" d="m24.06 8.94h-0.22q-1.27-0.03-1.76 0.42-0.5 0.45-0.5 1.62v0.57h2.41v2.86h-2.41v10.92h-1.51c-1.12 0-2.02-0.9-2.02-2.02v-8.9h-1.57v-2.86h1.57v-0.7q0-2.53 1.44-3.73 0.16-0.13 0.34-0.25 0.18-0.12 0.37-0.21 0.2-0.11 0.41-0.19 0.22-0.09 0.45-0.16 0.24-0.07 0.48-0.12 0.04-0.01 0.07-0.02 0.13-0.02 0.26-0.05 0.1-0.01 0.19-0.02 0.28-0.04 0.56-0.07 0.29-0.02 0.59-0.03c0.21 0 0.77 0 0.85 0h0.07 0.26 0.91v1.42c0 0 0.09 1.6-1.24 1.52z"/>
	</g>
</svg>