<svg version="1.2" xmlns="http://www.w3.org/2000/svg" viewBox="0 0 147 58" width="1000" height="395">
	<style>
		.s0 { fill: #054c2c } 
		.s1 { fill: #156b42 } 
		.s2 { fill: #00a751 } 
		.s3 { fill: #46c055 } 
	</style>
	<g id="Layer 1">
		<path id="&lt;Path&gt;" class="s0" d="m44.37 3v30.89c0 6.42-2.81 12.19-7.27 16.14v-16.63c-1.43 0-2.64 0.91-3.1 2.18-0.24-5.75-2.66-10.93-6.47-14.73q-1.67-1.67-3.66-2.96c1.06-3.27 2.88-6.2 5.26-8.58 3.9-3.9 9.29-6.31 15.24-6.31z"/>
		<path id="&lt;Path&gt;" class="s1" d="m22.82 55.44v-30.89c0-2.32 0.36-4.56 1.05-6.66q1.99 1.29 3.66 2.96c4.01 4 6.49 9.54 6.49 15.65v15.81c-3.27 1.99-7.1 3.13-11.2 3.13z"/>
		<path id="&lt;Path&gt;" class="s2" d="m22.82 55.44v-30.89c0-2.32 0.36-4.56 1.05-6.66-3.46-2.23-7.57-3.52-11.98-3.52v13.92q0 0 0 0c6.41 3.63 10.73 10.5 10.73 18.38v8.77"/>
		<path id="&lt;Compound Path&gt;" class="s3" d="m1.69 25.58h-0.69v8.08c0 8.13 4.46 15.22 11.06 18.96v-24.33c-3.06-1.72-6.6-2.71-10.37-2.71zm3.8 7.78c-0.83 0-1.5-0.68-1.5-1.51 0-0.83 0.67-1.51 1.5-1.51 0.84 0 1.51 0.68 1.51 1.51 0 0.83-0.67 1.51-1.51 1.51z"/>
		<path id="&lt;Path&gt;" class="s3" d="m22.79 55.44v-8.77c0-7.88-4.32-14.75-10.73-18.38q0 0 0 0v24.33q0.13 0.08 0.26 0.15 0.4 0.21 0.8 0.41 0.53 0.27 1.09 0.51 0.68 0.29 1.38 0.54c0 0 2.61 0.91 7.2 1.21z"/>
		<path id="&lt;Compound Path&gt;" class="s0" d="m71.5 22.82c-0.88-0.87-2.09-1.42-3.43-1.42v2.72q-0.97-1.31-2.57-2.17-1.6-0.86-3.73-0.86-2.45 0-4.43 1.21-1.97 1.2-3.13 3.44-1.15 2.24-1.15 5.13 0 2.93 1.15 5.18 1.16 2.25 3.13 3.5 1.98 1.23 4.39 1.23 2.14 0 3.77-0.87 0.82-0.44 1.46-1 0.64-0.55 1.11-1.22c0 1.53 1.25 2.78 2.79 2.78h2.06v-14.21c0-1.34-0.54-2.56-1.42-3.44zm-4.12 11.13q-0.69 1.26-1.86 1.93-1.17 0.67-2.51 0.67-1.31 0-2.46-0.69-1.16-0.69-1.86-1.98-0.71-1.29-0.71-3.01 0-1.72 0.71-2.98 0.7-1.26 1.84-1.91 1.14-0.65 2.48-0.65 1.34 0 2.51 0.67 1.17 0.67 1.86 1.93 0.69 1.25 0.69 3.01 0 1.75-0.69 3.01z"/>
		<path id="&lt;Compound Path&gt;" class="s0" d="m89.63 39.56q-2.2-1.22-3.46-3.46-1.25-2.24-1.25-5.16 0-2.93 1.29-5.17 1.29-2.23 3.53-3.45 2.23-1.23 4.99-1.23 2.75 0 4.99 1.23 2.24 1.22 3.53 3.45 1.29 2.24 1.29 5.17 0 2.92-1.33 5.16-1.32 2.24-3.58 3.46-2.25 1.22-5.04 1.22-2.75 0-4.96-1.22zm7.42-3.61q1.15-0.64 1.84-1.91 0.69-1.28 0.69-3.1 0-2.72-1.43-4.18-1.43-1.47-3.49-1.47-2.07 0-3.46 1.47-1.39 1.46-1.39 4.18 0 2.72 1.36 4.18 1.35 1.46 3.42 1.46 1.31 0 2.46-0.63z"/>
		<path id="&lt;Compound Path&gt;" class="s0" d="m110.09 39.56q-2.2-1.22-3.46-3.46-1.26-2.24-1.26-5.16 0-2.93 1.29-5.17 1.29-2.23 3.53-3.45 2.24-1.23 4.99-1.23 2.76 0 4.99 1.23 2.24 1.22 3.53 3.45 1.29 2.24 1.29 5.17 0 2.92-1.32 5.16-1.33 2.24-3.58 3.46-2.26 1.22-5.04 1.22-2.76 0-4.96-1.22zm7.42-3.61q1.15-0.64 1.84-1.91 0.69-1.28 0.69-3.1 0-2.72-1.43-4.18-1.43-1.47-3.5-1.47-2.06 0-3.46 1.47-1.39 1.46-1.39 4.18 0 2.72 1.36 4.18 1.36 1.46 3.43 1.46 1.3 0 2.46-0.63z"/>
		<path id="&lt;Compound Path&gt;" class="s0" d="m144.22 16.43c-0.79-0.79-1.84-1.31-3.02-1.41q-0.17-0.02-0.36-0.02-0.03 0-0.07 0v9.05q-1-1.34-2.69-2.15-1.68-0.81-3.54-0.81-2.45 0-4.44 1.21-2 1.2-3.15 3.44-1.16 2.24-1.16 5.13 0 2.93 1.16 5.18 1.15 2.25 3.15 3.49 1.99 1.24 4.4 1.24 2.14 0 3.76-0.86 0.8-0.43 1.43-1 0.63-0.56 1.08-1.27c0 1.56 1.26 2.82 2.82 2.82h2.07v-20.58c0-1.35-0.55-2.57-1.44-3.46zm-4.11 17.52q-0.68 1.26-1.85 1.93-1.17 0.67-2.52 0.67-1.31 0-2.46-0.69-1.15-0.69-1.86-1.98-0.7-1.29-0.7-3.01 0-1.72 0.7-2.98 0.71-1.25 1.84-1.91 1.14-0.65 2.48-0.65 1.35 0 2.52 0.67 1.17 0.67 1.85 1.93 0.69 1.25 0.69 3.01 0 1.75-0.69 3.01z"/>
		<path id="&lt;Path&gt;" class="s0" d="m84.96 17.79h-0.29q-1.76-0.04-2.45 0.58-0.68 0.62-0.68 2.24v0.79h3.33v3.96h-3.33v15.11h-2.09c-1.55 0-2.8-1.25-2.8-2.8v-12.31h-2.17v-3.96h2.17v-0.96q0-3.51 1.99-5.17 0.23-0.18 0.47-0.34 0.25-0.16 0.52-0.3 0.28-0.14 0.57-0.26 0.3-0.12 0.61-0.21 0.33-0.1 0.67-0.18 0.05-0.01 0.1-0.02 0.18-0.04 0.36-0.07 0.13-0.02 0.26-0.04 0.38-0.05 0.77-0.08 0.41-0.03 0.81-0.04c0.29-0.01 1.08 0 1.18 0h0.1 0.36l1.27-0.01v1.97c0 0 0.12 2.21-1.73 2.1z"/>
	</g>
</svg>