<svg version="1.2" xmlns="http://www.w3.org/2000/svg" viewBox="0 0 1000 1000" width="1000" height="1000">
	<style>
		.s0 { fill: #054c2c } 
		.s1 { fill: #156b42 } 
		.s2 { fill: #00a751 } 
		.s3 { fill: #46c055 } 
	</style>
	<path id="&lt;Path&gt;" class="s0" d="m890.63 28v556.06c0 115.58-50.54 219.39-130.77 290.42v-299.25c-25.72 0-47.66 16.36-55.94 39.24-4.17-103.46-47.87-196.73-116.3-265.17-20.02-20.01-42.15-37.89-66.03-53.29 19.14-58.89 51.95-111.61 94.74-154.37 70.2-70.2 167.19-113.64 274.3-113.64z"/>
	<path id="&lt;Path&gt;" class="s1" d="m502.71 971.98v-556.04c0-41.86 6.62-82.15 18.88-119.93 23.88 15.4 46.01 33.28 66.03 53.29 72.06 72.06 116.65 171.63 116.65 281.62v284.64c-58.75 35.81-127.73 56.42-201.56 56.42z"/>
	<path id="&lt;Path&gt;" class="s2" d="m502.71 972v-556.06c0-41.84 6.62-82.15 18.88-119.91-62.15-40.14-136.15-63.38-215.62-63.38v250.63q0.04 0 0.02 0.03c115.33 65.17 193.09 188.98 193.09 330.78v157.87"/>
	<path id="&lt;Compound Path&gt;" class="s3" d="m122.45 434.36h-12.45v145.44c0 146.39 80.21 274.04 199.12 341.4v-437.92c-55.11-31.09-118.78-48.92-186.67-48.92zm68.44 140.08c-14.97 0-27.14-12.17-27.14-27.14 0-14.96 12.17-27.11 27.14-27.11 14.97 0 27.11 12.15 27.11 27.11 0 14.97-12.14 27.14-27.11 27.14z"/>
	<path id="&lt;Path&gt;" class="s3" d="m502.23 971.96v-157.87c0-141.8-77.77-265.61-193.09-330.78q0-0.03-0.02-0.03v437.92q2.34 1.33 4.7 2.62l0.02 0.04q7.05 3.85 14.29 7.46 9.65 4.8 19.64 9.06 12.24 5.25 24.93 9.68c0 0 46.87 16.52 129.53 21.9z"/>
</svg>