<svg version="1.2" xmlns="http://www.w3.org/2000/svg" viewBox="0 0 800 800" width="800" height="800">
	<style>
		.s0 { fill: #fadb55 } 
		.s1 { fill: #104c2c } 
	</style>
	<g id="Carpeta 1">
		<path fill-rule="evenodd" class="s0" d="m654.61 138.75v528.94h-476.91v-528.94z"/>
		<path class="s1" d="m795.98 307.64c-2.21-56-18.96-108.27-46.61-153.16-27.98-45.63-67.25-83.61-113.86-110.1q-1.75-1.03-3.53-1.98-1.53-0.85-3.02-1.67-0.38-0.21-0.76-0.42c-44.54-23.79-95.44-37.31-149.48-37.31h-474.72v476.17c0 22.53 2.35 44.52 6.83 65.72q1.05 5.09 2.28 10.1c34 138.76 159.2 241.72 308.43 241.72h474.74v-476.17q0-6.49-0.3-12.9zm-206 137.99c-0.7 82.27-59.86 140.95-141.78 141.39-30.37 0.14-60.73 0.35-91.1-0.06-77.29-1.02-137.44-61.41-137.65-138.25-0.24-72.35-0.06-144.67-0.06-216.65 71.07-17.68 154.77 12.93 185.43 119.37 11.89-42.74 31.78-76.56 66.96-100.41 35.17-23.85 73.66-26.21 116.84-21.66 0.57 8.63 1.42 15.52 1.42 22.4 0.08 64.63 0.48 129.26-0.06 193.87z"/>
	</g>
</svg>