<svg version="1.2" xmlns="http://www.w3.org/2000/svg" viewBox="0 0 800 800" width="800" height="800">
	<style>
		.s0 { fill: #fadb55 } 
		.s1 { fill: #104c2c } 
	</style>
	<g id="Carpeta 1">
		<path fill-rule="evenodd" class="s0" d="m619.14 175.67v454.57h-409.86v-454.57z"/>
		<path class="s1" d="m740.64 320.81c-1.9-48.12-16.3-93.05-40.06-131.63-24.05-39.21-57.8-71.85-97.86-94.62q-1.5-0.89-3.03-1.7-1.31-0.73-2.6-1.43-0.32-0.18-0.65-0.37c-38.28-20.44-82.02-32.06-128.46-32.06h-407.98v409.23c0 19.36 2.02 38.26 5.87 56.47q0.9 4.38 1.96 8.68c29.21 119.25 136.82 207.74 265.06 207.74h408v-409.23q0-5.57-0.25-11.08zm-177.04 118.59c-0.6 70.7-51.45 121.13-121.85 121.51-26.1 0.12-52.2 0.3-78.29-0.05-66.43-0.88-118.12-52.77-118.3-118.81-0.2-62.18-0.05-124.34-0.05-186.19 61.07-15.2 133.01 11.11 159.36 102.58 10.21-36.73 27.31-65.79 57.54-86.29 30.23-20.49 63.31-22.53 100.42-18.61 0.48 7.41 1.22 13.33 1.22 19.25 0.06 55.54 0.41 111.08-0.05 166.61z"/>
	</g>
</svg>