<svg id="SvgjsSvg1001" width="288" height="288" xmlns="http://www.w3.org/2000/svg" version="1.1" xmlns:xlink="http://www.w3.org/1999/xlink" xmlns:svgjs="http://svgjs.com/svgjs"><defs id="SvgjsDefs1002"></defs><g id="SvgjsG1008"><svg xmlns="http://www.w3.org/2000/svg" viewBox="0 0 24 24" width="288" height="288"><g stroke-linecap="round" stroke-linejoin="round"><path d="M12 .5a11.5 11.5 0 0 0-9.54 17.92L.5 23.5l5.23-1.87A11.5 11.5 0 1 0 12 .5Z" fill="none" stroke="#00572d" class="svgStroke colorStroke303c42-1 selectable"></path><path d="M9.5 14.5c1.3 1.3 4.17 3 5.5 3a2.53 2.53 0 0 0 2.5-2v-1s-1.23-.6-2-1-2 1-2 1A6.52 6.52 0 0 1 11 13a6.52 6.52 0 0 1-1.5-2.5s1.4-1.23 1-2-1-2-1-2h-1a2.53 2.53 0 0 0-2 2.5c0 1.33 1.7 4.2 3 5.5Z" fill="none" stroke="#00572d" class="svgStroke colorStroke303c42-2 selectable"></path></g></svg></g></svg>