<svg version="1.2" xmlns="http://www.w3.org/2000/svg" viewBox="0 0 300 300" width="300" height="300">
	<style>
		.s0 { fill: #4db969 } 
		.s1 { fill: #064e2d } 
		.s2 { fill: #b1d599 } 
		.s3 { fill: #23af5d } 
		.s4 { fill: #23a64d } 
		.s5 { fill: #e6dc84 } 
		.s6 { fill: #eadf5a } 
		.s7 { fill: #73c387 } 
		.s8 { opacity: .13;fill: #fefefe } 
	</style>
	<g id="&lt;Group&gt;">
		<path id="&lt;Path&gt;" class="s0" d="m138.63 10.55h-0.01l-23.08 11.83-86.37 4.18c16.98-15.79 40.53-25.56 66.56-25.56 15.46 0 30.05 3.45 42.9 9.55z"/>
		<g id="&lt;Group&gt;">
			<path id="&lt;Path&gt;" class="s1" d="m299 198.79c0 13.54-3.23 26.46-9.1 38.25h-1.54-222.29q-0.24-0.48-0.47-0.97-0.1-0.2-0.19-0.4-0.03-0.06-0.06-0.12l-0.08-0.17q-0.24-0.51-0.48-1.03 0-0.01-0.01-0.02-0.09-0.19-0.17-0.38-0.05-0.1-0.09-0.19-0.13-0.3-0.26-0.6-0.13-0.3-0.26-0.6-0.25-0.56-0.48-1.13-0.47-1.14-0.91-2.29-0.18-0.45-0.34-0.9-0.02-0.04-0.04-0.08-0.03-0.08-0.05-0.16 0-0.01-0.01-0.02-0.03-0.1-0.07-0.2-0.17-0.47-0.34-0.95-0.2-0.58-0.4-1.16-0.09-0.28-0.18-0.56-0.03-0.08-0.06-0.16-0.15-0.44-0.29-0.9-0.04-0.15-0.09-0.31-0.15-0.5-0.3-0.99-0.16-0.52-0.3-1.04-0.04-0.12-0.07-0.24-0.01-0.05-0.02-0.09-0.11-0.42-0.23-0.84-0.18-0.64-0.33-1.28-0.4-1.58-0.73-3.18-0.07-0.28-0.12-0.56-0.06-0.28-0.11-0.56-0.11-0.54-0.21-1.08-0.01-0.06-0.02-0.13-0.07-0.41-0.14-0.82-0.07-0.41-0.14-0.83-0.09-0.57-0.17-1.14-0.02-0.15-0.04-0.29-0.07-0.5-0.14-0.98 0-0.02 0-0.04-0.06-0.42-0.11-0.82-0.07-0.62-0.13-1.25-0.04-0.32-0.07-0.65-0.01-0.04-0.01-0.08-0.01-0.08-0.01-0.17-0.06-0.55-0.1-1.09 0-0.02 0-0.04-0.07-0.8-0.12-1.59-0.04-0.69-0.07-1.38 0-0.06 0-0.13-0.02-0.31-0.03-0.64-0.02-0.41-0.02-0.84-0.02-0.35-0.02-0.72 0-0.05 0-0.11-0.01-0.67-0.01-1.35 0-4.59 0.48-9.06 0.01-0.02 0.01-0.04 0.06-0.56 0.13-1.09 0.12-1 0.26-1.99 0.06-0.39 0.12-0.78 0.05-0.37 0.12-0.73 0.06-0.4 0.13-0.8 0.02-0.13 0.04-0.24 0.12-0.7 0.26-1.38 0.11-0.56 0.23-1.12 0.06-0.32 0.13-0.65 0.07-0.32 0.15-0.65 0.09-0.45 0.2-0.89 0.14-0.57 0.28-1.14 0.28-1.13 0.59-2.25 0.15-0.51 0.29-1.02 0.2-0.64 0.4-1.28 0.01-0.04 0.02-0.08 0.16-0.48 0.31-0.97 0.16-0.48 0.32-0.96 0.21-0.62 0.43-1.24 0.2-0.55 0.4-1.1 0.2-0.57 0.42-1.13 0.03-0.08 0.07-0.16 0.17-0.47 0.36-0.93 0.22-0.55 0.45-1.1 1.6-3.84 3.55-7.53 0.02-0.02 0.02-0.04 0.28-0.53 0.57-1.06 0.29-0.53 0.59-1.06 0.07-0.12 0.13-0.23 0.32-0.57 0.65-1.12 0.33-0.57 0.68-1.14 0.39-0.67 0.82-1.33 0.42-0.67 0.85-1.33 0.17-0.26 0.34-0.52 0.49-0.75 0.99-1.48 0.39-0.55 0.78-1.1 0.3-0.43 0.61-0.86 0.02-0.02 0.03-0.05 0.43-0.58 0.86-1.16 0.44-0.59 0.9-1.19 0.22-0.29 0.45-0.57 0.14-0.18 0.28-0.37 0.41-0.51 0.82-1.02 0.07-0.09 0.14-0.17 0.53-0.66 1.08-1.31 0.16-0.19 0.33-0.39 0.04-0.05 0.09-0.1 0.52-0.61 1.06-1.22 0.06-0.07 0.12-0.15 0.59-0.66 1.18-1.3 0.07-0.07 0.13-0.15 0.52-0.57 1.06-1.13 0.27-0.29 0.56-0.59 0.41-0.43 0.84-0.85 0.35-0.37 0.72-0.74 0.29-0.29 0.58-0.57 0.33-0.33 0.66-0.64 0.49-0.49 0.99-0.96 0.1-0.1 0.22-0.2 0.45-0.43 0.92-0.85 0.23-0.21 0.47-0.43 0.1-0.1 0.21-0.19 0.59-0.53 1.19-1.06 0.23-0.21 0.46-0.4 0.02-0.02 0.04-0.04 0.35-0.3 0.71-0.6 0.35-0.31 0.71-0.61 0 0 0.01 0c21.94-18.38 52.38-29.76 86.02-29.76q5.45 0 10.77 0.39 0.94 0.07 1.87 0.15 0.94 0.08 1.87 0.17 0.83 0.08 1.65 0.18 1.03 0.11 2.05 0.24 0.5 0.06 1 0.13 0.47 0.06 0.94 0.12 0.66 0.09 1.32 0.19 0.21 0.03 0.41 0.06 0.91 0.14 1.82 0.29 0.9 0.15 1.8 0.31 0.9 0.16 1.8 0.33 0.9 0.17 1.78 0.36 0.94 0.18 1.87 0.39 0.15 0.03 0.3 0.07 0.09 0.02 0.19 0.04 0.16 0.03 0.31 0.07 0.6 0.14 1.19 0.27 0.36 0.09 0.72 0.17 0.35 0.08 0.71 0.17 0.74 0.18 1.48 0.37 0.57 0.15 1.13 0.3 0.1 0.02 0.2 0.05 0.04 0.01 0.09 0.03 0.42 0.11 0.84 0.23 0.57 0.15 1.12 0.31 0.78 0.22 1.55 0.45 0.08 0.02 0.16 0.05 1.65 0.49 3.27 1.02 0.57 0.18 1.13 0.37 0.37 0.13 0.73 0.25 0.37 0.12 0.74 0.25 0.34 0.12 0.67 0.23 0.81 0.29 1.62 0.59 0.03 0.01 0.07 0.03 0.61 0.22 1.21 0.45 0.58 0.22 1.16 0.45 0.61 0.23 1.21 0.48 0.05 0.02 0.11 0.04 0.05 0.02 0.11 0.05 1.23 0.5 2.46 1.02 0.99 0.42 1.96 0.86 0.28 0.12 0.56 0.25 0.78 0.35 1.56 0.72 0.05 0.02 0.09 0.04 0.14 0.07 0.28 0.13 0.06 0.03 0.12 0.06 0.44 0.21 0.88 0.43 0.5 0.23 1 0.48 0.17 0.08 0.34 0.17 0.59 0.29 1.16 0.59 0.18 0.09 0.35 0.18 0.35 0.17 0.7 0.36 0.04 0.02 0.08 0.05 0.62 0.31 1.23 0.64 0.05 0.03 0.11 0.06 0.22 0.12 0.43 0.24 0.54 0.29 1.06 0.58 0.06 0.03 0.13 0.07 0.9 0.51 1.79 1.02 0.72 0.42 1.43 0.84 0.03 0.02 0.06 0.03 0.07 0.05 0.15 0.09l1.28 0.79q0.62 0.38 1.24 0.77 0.28 0.18 0.57 0.37 0.29 0.18 0.58 0.37 0.57 0.37 1.13 0.74 0.28 0.19 0.55 0.37 1 0.67 1.99 1.37 0.3 0.21 0.59 0.42 0.3 0.21 0.59 0.42 0.58 0.42 1.16 0.85 0.58 0.43 1.15 0.86 0.59 0.45 1.17 0.91 0.34 0.27 0.69 0.54 0.34 0.27 0.68 0.55 0.38 0.29 0.74 0.59 0.61 0.5 1.22 1.01 0.05 0.05 0.1 0.09 0.03 0.02 0.05 0.04 0.45 0.38 0.88 0.76 0.53 0.45 1.05 0.91 0.8 0.7 1.59 1.44 0.62 0.56 1.23 1.14 0.17 0.15 0.33 0.32 0.45 0.43 0.9 0.87 0.06 0.05 0.12 0.12 0.01 0 0.01 0.01h0.01q0.24 0.23 0.47 0.47 0.24 0.24 0.47 0.47 0.47 0.47 0.93 0.95 0.08 0.08 0.16 0.16 0.06 0.06 0.12 0.12 0.07 0.08 0.15 0.16 0.29 0.31 0.58 0.61 1.44 1.52 2.79 3.09 0.41 0.45 0.79 0.91 0.77 0.91 1.51 1.82 0.28 0.34 0.55 0.68 0.33 0.42 0.66 0.84 0.42 0.54 0.84 1.09 0.26 0.34 0.5 0.68 0.3 0.38 0.58 0.77 0.3 0.41 0.6 0.83 0.17 0.25 0.36 0.51 0.17 0.25 0.35 0.5 0.34 0.48 0.66 0.97 0.33 0.48 0.66 0.97 0.04 0.07 0.08 0.13 0.5 0.77 0.99 1.55 0.03 0.03 0.05 0.07 0.5 0.79 0.97 1.59 0.02 0.01 0.03 0.03 0.27 0.46 0.54 0.92 0.9 1.52 1.73 3.07 0.38 0.71 0.75 1.43 0.36 0.7 0.71 1.4 0.01 0.04 0.03 0.07 0.28 0.57 0.55 1.15 0.16 0.34 0.32 0.69 0.04 0.07 0.07 0.14 0.26 0.56 0.51 1.13 0.03 0.05 0.04 0.1 0.26 0.57 0.51 1.15 0.25 0.58 0.49 1.17 0.03 0.08 0.06 0.16 0.03 0.07 0.06 0.14 0.05 0.11 0.09 0.23 0.2 0.49 0.39 0.99 0.13 0.31 0.24 0.63 0.2 0.51 0.38 1.02 0.59 1.59 1.11 3.2 0.24 0.76 0.47 1.53 0.19 0.63 0.37 1.27 0.04 0.13 0.08 0.27 0.01 0.02 0.01 0.05 0.14 0.51 0.28 1.03 0.02 0.08 0.05 0.18 0.07 0.23 0.12 0.45 0.01 0.04 0.02 0.08 0.18 0.67 0.33 1.34 0.19 0.77 0.37 1.56 0 0 0 0.01 0.17 0.79 0.33 1.58 0.16 0.79 0.3 1.59 0.14 0.73 0.26 1.46 0.01 0.13 0.03 0.25 0.02 0.09 0.03 0.17 0.07 0.42 0.13 0.85 0.01 0.09 0.02 0.17 0.05 0.32 0.09 0.63 0.09 0.64 0.17 1.29 0.17 1.36 0.29 2.74 0.33 3.69 0.33 7.45z"/>
			<path id="&lt;Path&gt;" class="s2" d="m29.15 26.57l-19.21 25.98c4.65-9.74 11.19-18.53 19.21-25.98z"/>
			<path id="&lt;Path&gt;" class="s2" d="m298.66 191.34q-0.11-1.38-0.28-2.74-0.08-0.65-0.17-1.29-0.04-0.31-0.09-0.63-0.01-0.08-0.03-0.17-0.05-0.43-0.12-0.85-0.02-0.08-0.03-0.17-0.02-0.12-0.04-0.24-0.12-0.74-0.25-1.47-0.14-0.8-0.3-1.59-0.16-0.79-0.33-1.58 0 0 0-0.01-0.18-0.79-0.37-1.56-0.16-0.67-0.33-1.34-0.01-0.04-0.02-0.08-0.06-0.22-0.12-0.45-0.03-0.1-0.05-0.18-0.13-0.53-0.28-1.04 0-0.02-0.02-0.04-0.03-0.14-0.07-0.27-0.18-0.64-0.37-1.27-0.23-0.77-0.48-1.53-0.52-1.61-1.1-3.2-0.18-0.51-0.38-1.02-0.11-0.31-0.24-0.63-0.19-0.5-0.4-0.99-0.04-0.12-0.09-0.23-0.02-0.07-0.05-0.14-0.04-0.08-0.07-0.16-0.23-0.58-0.48-1.17-0.25-0.57-0.51-1.16-0.02-0.04-0.04-0.09-0.25-0.57-0.51-1.13-0.04-0.07-0.07-0.14-0.16-0.35-0.32-0.7-0.27-0.57-0.56-1.14-0.01-0.04-0.03-0.07-0.34-0.7-0.7-1.4-0.37-0.72-0.76-1.43-0.82-1.55-1.72-3.06v-0.01q-0.27-0.46-0.55-0.92 0-0.02-0.02-0.03-0.48-0.8-0.97-1.59-0.02-0.04-0.05-0.07-0.49-0.78-1-1.55-0.04-0.06-0.08-0.13-0.32-0.49-0.65-0.97-0.32-0.49-0.66-0.97-0.18-0.25-0.36-0.5-0.18-0.26-0.35-0.51-0.3-0.42-0.61-0.83-0.27-0.39-0.57-0.77-0.24-0.34-0.5-0.68-0.42-0.55-0.84-1.09-0.33-0.42-0.67-0.84-0.26-0.34-0.54-0.68-0.74-0.91-1.51-1.82-0.38-0.46-0.79-0.91-1.36-1.57-2.79-3.09-0.29-0.3-0.58-0.61-0.08-0.08-0.15-0.16-0.06-0.06-0.12-0.12-0.08-0.08-0.16-0.16-0.46-0.48-0.93-0.95-0.24-0.24-0.47-0.47-0.24-0.24-0.47-0.46l-0.01-0.01q0 0-0.01-0.01-0.06-0.07-0.13-0.12-0.44-0.44-0.89-0.88-0.17-0.15-0.34-0.31-0.61-0.58-1.22-1.15-0.79-0.73-1.59-1.43-0.52-0.46-1.05-0.91-0.44-0.38-0.88-0.76-0.02-0.02-0.05-0.04-0.05-0.04-0.1-0.08-0.61-0.52-1.22-1.02-0.37-0.3-0.74-0.59-0.34-0.28-0.69-0.55-0.34-0.27-0.68-0.55-0.58-0.45-1.18-0.9-0.56-0.44-1.14-0.85-0.58-0.44-1.16-0.86-0.29-0.21-0.59-0.42-0.29-0.21-0.59-0.42-0.99-0.7-1.99-1.37-0.28-0.18-0.55-0.37-0.57-0.37-1.13-0.74-0.29-0.19-0.58-0.37-0.29-0.19-0.58-0.37-0.61-0.39-1.23-0.77l-1.29-0.79q-0.07-0.04-0.14-0.09-0.03-0.01-0.06-0.03-0.71-0.42-1.43-0.84-0.89-0.51-1.8-1.02-0.06-0.03-0.12-0.07-0.53-0.3-1.06-0.58-0.21-0.12-0.43-0.24-0.06-0.03-0.11-0.05-0.61-0.34-1.23-0.65-0.04-0.02-0.08-0.05-0.35-0.18-0.7-0.36-0.18-0.09-0.35-0.18-0.58-0.3-1.16-0.58-0.17-0.1-0.35-0.18-0.49-0.24-0.99-0.49-0.44-0.21-0.88-0.42-0.06-0.03-0.12-0.05-0.14-0.07-0.28-0.14-0.05-0.02-0.09-0.04-0.78-0.37-1.57-0.72-0.27-0.12-0.55-0.25-0.98-0.44-1.97-0.86-1.22-0.52-2.45-1.02-0.06-0.03-0.11-0.05-0.06-0.02-0.11-0.04-0.6-0.25-1.21-0.48-0.58-0.23-1.16-0.45-0.6-0.23-1.21-0.45-0.04-0.02-0.08-0.03-0.8-0.31-1.61-0.58-0.34-0.13-0.67-0.24-0.37-0.14-0.74-0.25-0.37-0.12-0.73-0.25-0.57-0.19-1.13-0.37-1.62-0.54-3.27-1.03-0.08-0.02-0.16-0.04-0.77-0.23-1.55-0.45-0.56-0.16-1.12-0.31-0.42-0.13-0.85-0.23-0.04-0.02-0.09-0.03-0.09-0.03-0.19-0.05-0.56-0.16-1.13-0.29-0.74-0.2-1.49-0.38-0.35-0.09-0.71-0.17-0.35-0.08-0.71-0.17-0.59-0.13-1.19-0.27-0.16-0.04-0.31-0.07-0.1-0.02-0.19-0.04-0.15-0.04-0.3-0.07-0.94-0.21-1.87-0.4-0.89-0.17-1.78-0.35-0.9-0.17-1.8-0.33-0.9-0.16-1.8-0.31-0.91-0.15-1.82-0.29-0.21-0.03-0.41-0.06-0.66-0.1-1.33-0.19-0.46-0.06-0.93-0.12-0.5-0.07-1-0.13-1.02-0.13-2.05-0.25-0.82-0.09-1.65-0.17-0.93-0.09-1.87-0.17-0.93-0.08-1.87-0.14-5.32-0.41-10.78-0.41c-33.64 0-64.08 11.39-86.01 29.77q-0.01 0-0.01 0-0.36 0.3-0.72 0.61-0.35 0.3-0.7 0.6-0.02 0.02-0.04 0.03-0.23 0.2-0.46 0.41-0.61 0.53-1.2 1.06-0.11 0.09-0.21 0.19-0.23 0.22-0.47 0.43-0.46 0.42-0.92 0.85-0.11 0.1-0.21 0.2-0.5 0.47-0.99 0.96-0.34 0.31-0.66 0.64-0.05 0.05-0.11 0.1-0.24 0.23-0.47 0.47-0.37 0.37-0.73 0.74-0.43 0.42-0.83 0.85-0.29 0.3-0.57 0.59-0.53 0.56-1.05 1.13-0.07 0.08-0.14 0.15-0.58 0.64-1.17 1.3-0.06 0.07-0.13 0.15-0.53 0.61-1.06 1.22-0.04 0.05-0.08 0.1-0.17 0.2-0.33 0.39-0.55 0.65-1.08 1.31-0.07 0.08-0.14 0.17-0.41 0.51-0.82 1.03-0.14 0.18-0.28 0.36-0.23 0.28-0.45 0.57-0.46 0.6-0.91 1.19-0.43 0.58-0.85 1.16-0.02 0.03-0.03 0.05-0.31 0.43-0.62 0.86-0.39 0.55-0.77 1.1-0.5 0.73-0.99 1.48-0.17 0.26-0.34 0.51-0.44 0.67-0.86 1.34-0.42 0.66-0.82 1.33-0.34 0.57-0.68 1.14-0.32 0.55-0.64 1.12-0.07 0.11-0.13 0.23-0.3 0.53-0.59 1.06-0.29 0.53-0.57 1.05-0.01 0.03-0.02 0.05-1.96 3.69-3.55 7.52v0.01q-0.23 0.55-0.45 1.09-0.19 0.47-0.37 0.94-0.03 0.08-0.06 0.16-0.22 0.56-0.43 1.13-0.2 0.54-0.39 1.11-0.23 0.61-0.43 1.23-0.17 0.48-0.32 0.96-0.16 0.49-0.31 0.97-0.01 0.03-0.03 0.07-0.2 0.65-0.39 1.29-0.14 0.51-0.29 1.02-0.31 1.12-0.6 2.25-0.14 0.57-0.27 1.14-0.11 0.44-0.21 0.89-0.07 0.32-0.14 0.65-0.07 0.33-0.14 0.65-0.11 0.56-0.22 1.12-0.14 0.68-0.26 1.38-0.02 0.11-0.04 0.24-0.07 0.4-0.14 0.8-0.06 0.37-0.11 0.74-0.06 0.38-0.12 0.77-0.14 0.99-0.26 1.99-0.07 0.53-0.14 1.09 0.01 0.02 0 0.04-0.49 4.47-0.49 9.06 0 0.68 0.01 1.35 0 0.06 0.01 0.11 0 0.37 0.02 0.72 0 0.43 0.02 0.84 0.01 0.33 0.02 0.64 0.01 0.07 0.01 0.13 0.03 0.69 0.07 1.38 0.05 0.79 0.11 1.59 0.01 0.02 0.01 0.04 0.04 0.54 0.09 1.09 0.01 0.08 0.02 0.17 0 0.04 0.01 0.08 0.02 0.32 0.06 0.65 0.07 0.63 0.14 1.25 0.05 0.4 0.11 0.82 0 0.02 0 0.04 0.06 0.48 0.13 0.97 0.02 0.16 0.05 0.3 0.07 0.57 0.17 1.14 0.07 0.42 0.14 0.83 0.06 0.41 0.14 0.82 0.01 0.07 0.02 0.13 0.1 0.54 0.21 1.08 0.05 0.27 0.11 0.56 0.05 0.28 0.11 0.56 0.34 1.6 0.73 3.18 0.16 0.64 0.34 1.28 0.11 0.42 0.23 0.85 0.01 0.04 0.02 0.08 0.03 0.12 0.07 0.24 0.14 0.52 0.3 1.04 0.14 0.49 0.3 0.99 0.04 0.16 0.09 0.31 0.14 0.46 0.29 0.91 0.03 0.07 0.05 0.15 0.1 0.28 0.19 0.56 0.19 0.58 0.4 1.16 0.17 0.48 0.34 0.95 0.03 0.1 0.07 0.2 0 0.01 0 0.02 0.03 0.08 0.06 0.15 0.02 0.05 0.04 0.1 0.16 0.45 0.34 0.9 0.43 1.14 0.9 2.28 0.24 0.57 0.49 1.13 0.13 0.3 0.25 0.6 0.14 0.3 0.27 0.6 0.04 0.09 0.08 0.19 0.09 0.19 0.18 0.38 0 0.01 0.01 0.02 0.23 0.52 0.48 1.03l0.08 0.17q0.03 0.06 0.06 0.12 0.09 0.2 0.19 0.4 0.23 0.49 0.47 0.96v0.01h-65.07q0.16-0.01 0.31-0.01h0.75v-154.27q0.05-0.25 0.09-0.48 0.14-0.8 0.29-1.59-0.08 0.79-0.14 1.59h186.85q-0.1-1.3-0.24-2.58-0.07-0.62-0.14-1.25c-3.2-26.04-18.59-48.61-40.67-62.58q-4.55-2.89-9.47-5.26h160.37v175.34c0 0 0.02 1.96-0.34 5.39z"/>
			<path id="&lt;Path&gt;" class="s0" d="m7.94 57.95q0.93-2.32 1.98-4.58c-3.1 7.88-5.38 16.55-7.05 25.08h-0.25q0.1-0.49 0.2-0.98c1.3-6.57 2.97-13.22 5.12-19.52z"/>
			<path id="&lt;Path&gt;" class="s0" d="m29.15 26.57l-19.21 25.98c4.65-9.74 11.19-18.53 19.21-25.98z"/>
			<path id="&lt;Path&gt;" class="s0" d="m188.91 78.45h-0.14c-3.2-26.04-18.59-48.61-40.67-62.58q-4.55-2.89-9.47-5.26h0.11q4.93 2.34 9.5 5.2c22.36 13.96 37.82 36.59 40.67 62.64z"/>
			<path id="&lt;Path&gt;" class="s0" d="m148.1 15.87c-27.65 11.55-49.33 34.33-59.21 62.58q-0.22 0.63-0.42 1.25-0.44 1.28-0.83 2.58h-85.34q0.06-0.8 0.14-1.59 0-0.01 0-0.03 0.09-0.48 0.18-0.96 0.12-0.62 0.25-1.25c1.67-8.53 3.95-17.2 7.05-25.08q-1.05 2.26-1.98 4.58 0.93-2.74 1.98-5.37 0.01-0.02 0.02-0.03l19.21-25.98q0 0 0.01 0 0-0.01 0.01-0.01l86.37-4.18 23.08-11.83h0.01q0.05 0.03 0.11 0.06h-0.11q4.92 2.37 9.47 5.26z"/>
			<path id="&lt;Path&gt;" class="s3" d="m2.62 79.7q-0.09 0.48-0.18 0.96 0.05-0.49 0.1-0.96 0.06-0.62 0.15-1.25 0.06-0.49 0.13-0.98c0.91-6.78 2.65-13.31 5.12-19.52q0.93-2.32 1.98-4.58c-3.1 7.88-5.38 16.55-7.05 25.08q-0.13 0.63-0.25 1.25z"/>
			<path id="&lt;Path&gt;" class="s3" d="m189.4 88.61q0 3.18-0.25 6.3-0.14 1.98-0.39 3.93c-3.64 29.45-22.87 54.45-49.74 67.59q-6.48 3.17-13.5 5.38c-6.77 2.13-13.88 3.55-21.24 4.17q-4.22 0.36-8.55 0.36c-11.94 0-23.36-2.09-33.86-5.9q-3.48-1.26-6.81-2.78c-14.23-6.43-26.46-16.14-35.57-28.08q-0.01 0-0.01-0.01-2.46-3.21-4.6-6.64c-8.15-13-12.82-28.15-12.82-44.32q0-3.2 0.24-6.33h186.85q0.24 3.13 0.25 6.33z"/>
			<g id="&lt;Group&gt;">
				<path id="&lt;Path&gt;" class="s4" d="m288.36 177.3v59.74h-287.36q0.16-0.01 0.31-0.01h0.75v-154.75h223.62c9.31 0 17.4 6.33 19.55 15.3l4.94 20.66 10.54 44.05h12.5c3.2 0 6.17 0.98 8.62 2.66 3.94 2.71 6.53 7.23 6.53 12.35z"/>
			</g>
			<path id="&lt;Path&gt;" class="s2" d="m223.49 194.86v42.18h-90.94v-42.18c0-4.91 4.01-8.88 8.97-8.88h72.99c4.96 0 8.98 3.97 8.98 8.88z"/>
			<path id="&lt;Path&gt;" fill-rule="evenodd" class="s5" d="m258.58 214.48c-11.47 0-20.74-9.02-20.74-20.17 0-11.16 9.27-20.18 20.74-20.18 11.47 0 20.74 9.02 20.74 20.18 0 11.15-9.27 20.17-20.74 20.17z"/>
			<path id="&lt;Path&gt;" fill-rule="evenodd" class="s5" d="m98.51 218.13c-11.47 0-20.74-9.17-20.74-20.53 0-11.35 9.27-20.53 20.74-20.53 11.47 0 20.74 9.18 20.74 20.53 0 11.36-9.27 20.53-20.74 20.53z"/>
			<path id="&lt;Path&gt;" class="s2" d="m11.3 180.19h21.27l25.53-14.22 186.13 1.06-13.42-58.67c-1.79-7.87-8.85-13.45-17-13.45h-171.02c-8.31 0-15.47 5.81-17.1 13.88z"/>
			<path id="&lt;Path&gt;" class="s6" d="m289.9 237.04c-6.12 12.3-15.1 23.37-26.27 32.64h-261.57v-32.64h286.3z"/>
			<g id="&lt;Group&gt;">
				<path id="&lt;Path&gt;" class="s6" d="m288.36 237.04h-287.36q0.16-0.01 0.31 0h287.05z"/>
			</g>
			<path id="&lt;Path&gt;" class="s1" d=""/>
			<path id="&lt;Path&gt;" class="s1" d="m263.63 269.68c-10.62 8.83-23.22 16.02-37.2 21.09q-4.87 1.77-9.95 3.18c-12.09 3.37-25.04 5.19-38.49 5.19q-1.5 0-2.98-0.03c-8.88 0.19-18.47-0.59-28.58-2.82-7.46-1.64-15.2-4.06-23.16-7.47h-121.21v-19.14z"/>
			<path id="&lt;Path&gt;" class="s6" d="m2.06 237.04h-1.06q0.16-0.01 0.31 0z"/>
			<path id="&lt;Path&gt;" class="s7" d="m189.15 82.28h-101.51q0.39-1.3 0.83-2.58 0.2-0.62 0.42-1.25c9.88-28.25 31.56-51.03 59.21-62.58 22.08 13.97 37.47 36.54 40.67 62.58q0.07 0.63 0.14 1.25 0.14 1.28 0.24 2.58z"/>
			<path id="&lt;Path&gt;" class="s8" d="m295.73 112.89c0 14.96-3.16 29.19-8.85 42.08v0.01q-2.26 5.13-5.05 9.97c-2.86 4.96-6.11 9.66-9.71 14.07-8.58 10.5-19.16 19.33-31.16 25.93-5.54 3.05-11.38 5.62-17.47 7.66-10.71 3.58-22.17 5.52-34.09 5.52-20.91 0-40.41-5.97-56.86-16.29-5.1-3.2-9.91-6.82-14.38-10.82-4.27-3.82-8.23-7.98-11.83-12.43v-0.01q-1.05-1.28-2.05-2.6-3.55-4.7-6.58-9.78c-5.79-9.74-10.05-20.49-12.43-31.92-1.45-6.91-2.2-14.07-2.2-21.39q0.01-9.21 1.55-17.98 1.12-6.46 3.02-12.63h101.51q-0.1-1.3-0.24-2.58-0.07-0.62-0.14-1.25c-3.2-26.04-18.59-48.61-40.67-62.58q0.07-0.03 0.14-0.06 7.7-3.21 15.97-5.2c8.07-1.95 16.51-2.98 25.19-2.98 8.67 0 17.11 1.03 25.18 2.98 46.57 11.19 81.15 52.73 81.15 102.28z"/>
		</g>
	</g>
</svg>