<svg version="1.2" xmlns="http://www.w3.org/2000/svg" viewBox="0 0 698 178" width="698" height="178">
	<defs>
		<clipPath clipPathUnits="userSpaceOnUse" id="cp1">
			<path d="m24.31-0.63h649.72c13.65 0 24.72 11.07 24.72 24.72v129.22c0 13.65-11.07 24.72-24.72 24.72h-649.72c-13.65 0-24.71-11.07-24.71-24.72v-129.22c0-13.65 11.06-24.72 24.71-24.72z"/>
		</clipPath>
	</defs>
	<style>
		.s0 { fill: #e2e2e2 } 
		.s1 { opacity: .15;fill: #000000 } 
		.s2 { opacity: .57;fill: #fee045 } 
		.s3 { fill: #dfc74f } 
	</style>
	<g id="Clip-Path" clip-path="url(#cp1)">
		<g>
			<path id="Forma 1" fill-rule="evenodd" class="s0" d="m24.31-0.63h649.72c13.65 0 24.72 11.07 24.72 24.72v129.22c0 13.65-11.07 24.72-24.72 24.72h-649.72c-13.65 0-24.71-11.07-24.71-24.72v-129.22c0-13.65 11.06-24.72 24.71-24.72z"/>
			<path id="Forma 1" fill-rule="evenodd" class="s0" d="m698.97-0.77v179.05h-704.34v-179.05z"/>
			<path class="s1" d="m703.09 81.94h17.04c2.29 0 4.07 2.03 4.07 4.31v89.53c0 2.28-1.78 4.07-4.07 4.07h-132c-2.28 0-4.06-1.79-4.06-4.07v-89.53c0-2.28 1.78-4.31 4.06-4.31h93.6v-39.68c0-12.97-10.69-23.91-23.92-23.91h-7.88c-12.97 0-23.65 10.94-23.65 23.91v15.01h-21.61v-17.05c0-23.39 15-42.72 38.15-42.72h21.87c23.4 0 38.4 19.33 38.4 42.72 0 0 0 41.72 0 41.72zm-61.04 71.97h23.91l-5.85-25.69c4.07-2.03 6.87-6.35 6.87-11.18 0-7.38-5.85-12.98-12.98-12.98-7.12 0-12.71 5.6-12.71 12.98 0 4.83 2.8 9.15 6.87 11.18z"/>
		</g>
	</g>
	<g id="Layer 1">
	</g>
	<g id="Layer 1">
		<path class="s2" d="m43.5 21.78h153.17c11.14 0 20.15 9.03 20.15 20.15v92.71c0 11.13-9.01 20.15-20.15 20.15h-153.17c-11.12 0-20.15-9.02-20.15-20.15v-92.71c0-11.12 9.03-20.15 20.15-20.15z"/>
		<path class="s3" d="m35.44 29.84h6.05c44.52 0 80.61 36.09 80.61 80.61v40.31h-46.35c-22.26 0-40.31-18.05-40.31-40.31z"/>
		<path class="s3" d="m206.75 29.84h-4.03c-44.53 0-80.62 36.09-80.62 80.61v40.31h44.34c22.26 0 40.31-18.05 40.31-40.31z"/>
		<path class="s3" d="m160.93 47.41c-33.29-42.77-65.28-17.82-77.12 0l36.53 97.3c27.4-14.61 73.87-54.55 40.59-97.3z"/>
	</g>
</svg>