<svg version="1.2" xmlns="http://www.w3.org/2000/svg" viewBox="0 0 300 300" width="300" height="300">
	<style>
		.s0 { fill: #149ed9 } 
		.s1 { fill: #f6df5c } 
		.s2 { fill: #b4d99b } 
		.s3 { fill: #5baee0 } 
		.s4 { fill: #1ab05e } 
		.s5 { fill: #064b2c } 
		.s6 { opacity: .11;fill: #fefefe } 
	</style>
	<g id="&lt;Group&gt;">
		<path id="&lt;Path&gt;" class="s0" d="m126.32 287.08c0 0 62.54 34.67 126.02-17.71 0.79 1.19 50.78-38.49 46.01-101.56 0-0.8-172.03 121.68-172.03 121.68z"/>
		<path id="&lt;Path&gt;" class="s1" d="m100.61 278.83c9.85 4.24 20.12 7.29 30.61 9.26h-128.83v-152.97c2.73 41.68 19.83 84.32 51.36 111.2 14.76 12.58 28.9 24.78 46.86 32.51z"/>
		<path id="&lt;Path&gt;" class="s2" d="m295.97 13.48l2.38 171.18-61.48-136.66z"/>
		<path id="&lt;Path&gt;" class="s3" d="m298.35 170.21c0 70.76-55.59 128.12-124.16 128.12-19.39 0-37.74-4.59-54.09-12.77q5.51 1.48 11.12 2.53h43.69c-8-11.97-43.58-70.7-9.58-122.6 0.53-0.46 3.18 32.7 46.02 39.4v-54.1c0 0 38.29-18.31 63.57-55.52 14.74 21.07 23.43 46.96 23.43 74.94z"/>
		<path id="&lt;Compound Path&gt;" fill-rule="evenodd" class="s4" d="m274.92 95.27c-3.34 4.92-6.91 9.51-10.59 13.77-24.14 27.96-52.98 41.75-52.98 41.75v54.1c-42.84-6.7-45.49-39.86-46.02-39.4-23.16 35.35-14.04 73.87-3.34 98.62 1.94 4.49 3.94 8.53 5.8 12.01 2.94 5.51 5.56 9.63 7.12 11.97h-43.69q-0.98-0.19-1.96-0.39-0.17-0.03-0.34-0.06-0.81-0.17-1.62-0.34-0.49-0.1-0.97-0.21h-0.01q-0.34-0.08-0.69-0.16-0.88-0.2-1.76-0.41-0.47-0.11-0.93-0.22-0.15-0.04-0.3-0.08-1.27-0.32-2.53-0.65-0.01-0.01-0.01-0.01c-39.76-19.88-67.68-61.01-69.93-109.09q-0.15-3.11-0.14-6.26c0-70.39 55-127.53 123.06-128.13q0.55-0.01 1.1-0.01c25.99 0 50.11 8.24 70.06 22.34 11.87 8.38 22.25 18.84 30.67 30.86zm-56.16-33.81c0-4.08-3.3-7.38-7.38-7.38-4.08 0-7.38 3.3-7.38 7.38 0 4.08 3.3 7.38 7.38 7.38 4.08 0 7.38-3.3 7.38-7.38z"/>
		<path id="&lt;Path&gt;" class="s5" d="m274.92 95.27c-22.55-32.23-59.27-53.2-100.73-53.2-68.57 0-124.16 57.37-124.16 128.14 0 50.75 28.59 94.61 70.07 115.35-6.64-1.77-13.15-4-19.49-6.73-17.96-7.73-32.1-19.93-46.86-32.51-31.53-26.88-48.63-69.52-51.36-111.2v-4.6q0.01-9.04 1.38-17.72 0.13-0.93 0.3-1.84c9.53-55.33 58.85-97.48 118.26-97.48h173.64c3.45 33.44-6.7 60.66-21.05 81.79z"/>
		<path id="&lt;Path&gt;" class="s4" d="m173.22 287.19c0 0-19-25.01 5.69-44.93 0 0.17 16.04 22.56 7.58 35.08 0.35 0.18 16.13-14.1 35.48-4.76 0 0-15.92 29.77-48.18 15.41z"/>
		<path id="&lt;Path&gt;" class="s4" d="m142.34 13.48h-20.01c-59.41 0-108.73 42.15-118.26 97.48q-0.17 0.91-0.3 1.84c-1.16-5.89-1.77-11.97-1.77-18.19 0-51.7 41.91-93.61 93.61-93.61 17.01 0 32.98 4.54 46.73 12.48z"/>
		<path id="&lt;Path&gt;" class="s6" d="m189.21 94.61c0 51.7-41.91 93.61-93.6 93.61-45.48 0-83.38-32.43-91.84-75.42q0.13-0.93 0.3-1.84c9.53-55.33 58.85-97.48 118.26-97.48h20.01c28.01 16.18 46.87 46.45 46.87 81.13z"/>
	</g>
</svg>