<svg version="1.2" xmlns="http://www.w3.org/2000/svg" viewBox="0 0 300 300" width="300" height="300">
	<style>
		.s0 { fill: #b1d599 } 
		.s1 { fill: #074a2b } 
		.s2 { fill: #4db969 } 
		.s3 { fill: #23af5d } 
		.s4 { opacity: .16;fill: #fefefe } 
		.s5 { fill: #eadf5a } 
	</style>
	<g id="&lt;Group&gt;">
		<g id="&lt;Group&gt;">
			<path id="&lt;Path&gt;" class="s0" d="m120.34 287.75q-1.16 0-2.32-0.01-57.3 0-114.61-0.01-0.78 0.01-1.56-0.02-0.79-0.04-0.82-0.82-0.03-0.78-0.03-1.56v-97.11q0-35.71 0-71.4c0-27.94 1.33-53.93 19.49-76.71 15.71-19.71 39.03-34.16 64.19-37.92 2.87-0.43 5.78-0.71 8.69-0.94 5.13-0.41 10.27-0.21 15.4-0.17 2.26 0.02 4.51 0.35 6.76 0.57 4.64 0.46 9.22 1.33 13.74 2.46 4.78 1.19 9.47 2.64 13.99 4.62q2.16 0.93 4.26 1.99 0.88 0.46 1.88 0.44 0.72-0.02 1.44 0h145.7l-203.33 0.68 17.61 18.15c0 0-54.77 17.22-60.43 110.77-2.79 10.39-4.28 21.3-4.28 32.55 0 50.88 30.45 94.7 74.23 114.44z"/>
			<path id="&lt;Path&gt;" class="s0" d="m158.01 298.12q-1.32-0.14-2.63-0.3c-5.29-0.65-10.51-1.64-15.62-3.09q-1.25-0.36-2.51-0.73-0.02 0-0.03-0.01c-2.45-0.71-4.89-1.46-7.28-2.37q3.6 1.29 7.3 2.35 1.22 0.36 2.46 0.68 0.03 0.01 0.06 0.02 8.9 2.37 18.25 3.45z"/>
			<path id="&lt;Path&gt;" class="s0" d="m170.92 298.93q-0.75-0.01-1.5-0.02-1.27-0.03-2.53-0.1 2 0.09 4.03 0.12z"/>
			<path id="&lt;Path&gt;" class="s0" d="m297.76 190.98q-0.03 0.24-0.06 0.47-0.33 2.4-0.76 4.78c-1.19 6.55-2.95 12.96-5.23 19.24q-0.45 1.24-0.93 2.47c2.67-6.97 4.74-14.24 6.13-21.74q0.48-2.59 0.85-5.22z"/>
			<path id="&lt;Path&gt;" class="s0" d="m299 173.33v0.68q0 2.89-0.16 5.77-0.04 0.77-0.09 1.54-0.02 0.22-0.03 0.43-0.23 3.21-0.61 6.4c0.52-6.07 0.86-13.37 0.89-14.08v-0.01q0-0.36 0-0.73z"/>
		</g>
		<path id="&lt;Path&gt;" class="s1" d="m296.91 196.2c-1.39 7.5-3.46 14.77-6.13 21.74q-0.22 0.6-0.46 1.19-0.26 0.66-0.53 1.32 0 0.02-0.01 0.03-0.28 0.67-0.56 1.34-0.28 0.67-0.57 1.33-0.37 0.84-0.75 1.67-0.15 0.33-0.29 0.64-0.26 0.58-0.54 1.15-3.54 7.44-8.06 14.4-5.9 9.07-13.22 17.04c-8.59 9.33-18.4 17.16-29.35 23.58-7.7 4.54-15.84 8.17-24.34 10.96q-9.38 3.09-19.14 4.66c-3.43 0.55-6.89 0.94-10.37 1.24q-4.59 0.38-9.19 0.44-0.43 0.01-0.85 0.01h-0.18q-0.73-0.01-1.45-0.01-2.03-0.03-4.03-0.12-0.84-0.03-1.67-0.08-0.31-0.02-0.62-0.04-0.85-0.05-1.71-0.12-0.35-0.02-0.7-0.05-0.78-0.06-1.55-0.14-0.69-0.06-1.38-0.13-0.62-0.06-1.25-0.13-9.35-1.08-18.25-3.45-0.03-0.01-0.06-0.02-1.24-0.32-2.46-0.68c-0.03-0.18-0.15-1.04-0.27-2.45-0.3-3.89-0.46-11.97 2.04-21.5 4.78-18.19 19.25-41.68 60.92-51.47 0.49 1.94 24.48 22.86 24.48 22.86v-79.47c15.95-4.42 27.66-4.56 27.66-4.56 0 0 43.58 37.84 44.84 38.82z"/>
		<path id="&lt;Path&gt;" class="s2" d="m299 173.28v0.05q0 0.37 0 0.73v0.01c-0.03 0.71-0.37 8.01-0.89 14.08q0 0.03-0.01 0.06-0.15 1.33-0.33 2.67 0 0.05-0.01 0.1-0.37 2.63-0.85 5.22c-1.26-0.98-44.84-38.82-44.84-38.82 0 0-11.71 0.14-27.66 4.56v-20.73l-89.37-1.55-22.41-0.39 22.93 20.91c0 0-79.31 32.35-36.72 105.67-0.28 0.55 8.74 13.56 23.3 22.05q-0.47-0.15-0.98-0.14-0.41 0-0.82-0.01c-43.78-19.74-74.23-63.56-74.23-114.44 0-11.25 1.49-22.16 4.28-32.55 10.98-40.75 42.06-73.33 82.04-86.61l-0.06-1.94-21.55-22.22-17.61-18.15 203.33-0.68h0.73c1.83 0 1.72 0.11 1.72 2.37q-0.02 79.87 0.01 159.75z"/>
		<path id="&lt;Path&gt;" class="s3" d="m132.43 54.15c-39.98 13.28-71.06 45.86-82.04 86.61 5.66-93.55 60.43-110.77 60.43-110.77l21.55 22.22z"/>
		<path id="&lt;Path&gt;" fill-rule="evenodd" class="s4" d="m151.22 288.12c-57.54 0-104.04-46.2-104.04-103.36 0-57.17 46.5-103.37 104.04-103.37 57.54 0 104.04 46.2 104.04 103.37 0 57.16-46.5 103.36-104.04 103.36z"/>
		<path id="&lt;Path&gt;" class="s5" d="m224.41 141.21v100.2c0 0-23.99-20.92-24.48-22.86-41.67 9.79-56.14 33.28-60.92 51.47-2.5 9.53-2.34 17.61-2.04 21.5 0.12 1.41 0.24 2.27 0.27 2.45q-3.7-1.06-7.3-2.35c-2.43-0.92-4.8-2.01-7.05-3.39q-0.36-0.22-0.75-0.33c-14.56-8.49-23.58-21.5-23.3-22.05-42.59-73.32 36.72-105.67 36.72-105.67l-22.93-20.91 22.41 0.39z"/>
	</g>
</svg>