<svg version="1.2" xmlns="http://www.w3.org/2000/svg" viewBox="0 0 300 300" width="300" height="300">
	<style>
		.s0 { fill: #064b2c } 
		.s1 { fill: #b4d99b } 
		.s2 { fill: #1ab05e } 
		.s3 { fill: #f6df5c } 
		.s4 { fill: #54ba65 } 
		.s5 { opacity: .11;fill: #fefefe } 
	</style>
	<g id="&lt;Group&gt;">
		<path id="&lt;Path&gt;" class="s0" d="m299 170.15c-12.33-1.98-23.91-5.5-34.74-10.18 11.13 14.08 17.59 30.9 17.59 48.97 0 12.36-3.03 24.15-8.51 34.87-22.07 27.84-56.34 45.73-94.84 45.73h-176.82v-160.73q0-9.12 1.34-17.87c3.36-22.23 12.91-42.44 26.85-58.88 7.96-9.38 17.34-17.53 27.82-24.12 18.64-11.73 40.76-18.52 64.48-18.52h176.83z"/>
		<path id="&lt;Path&gt;" class="s1" d="m299 9.42v160.73c0 27.8-9.59 53.37-25.66 73.66 5.48-10.72 8.51-22.51 8.51-34.87 0-18.07-6.46-34.89-17.59-48.97q-6.97-3.02-13.54-6.64c-14.11-7.77-26.82-17.46-38.16-28.12-8.46-7.96-16.16-16.45-23.12-25.08q-0.39-0.47-0.77-0.96c-32.22-40.3-48.25-83.18-49.88-87.68q-0.14-0.39-0.14-0.39l-0.87-1.68z"/>
		<path id="&lt;Path&gt;" class="s2" d="m281.85 208.94c0 12.36-3.03 24.15-8.51 34.87-16.53 32.33-55.34 55.03-100.59 55.03-17.37 0-33.8-3.35-48.38-9.3-10.99-4.49-20.94-10.46-29.44-17.6-19.34-16.23-31.27-38.47-31.27-63q0-5.72 0.84-11.25 1.01-6.61 3.13-12.89c2.43-7.19 5.91-14.03 10.32-20.37 18.78-27.12 54.2-45.4 94.8-45.4q5.06 0 9.99 0.37 0.11 0.01 0.22 0.02 1.68 0.13 3.34 0.3c9.16 0.93 17.96 2.8 26.26 5.49 15.93 5.14 30.05 13.29 41.3 23.6q5.72 5.23 10.4 11.16c11.13 14.08 17.59 30.9 17.59 48.97z"/>
		<path id="&lt;Path&gt;" fill-rule="evenodd" class="s3" d="m95.63 189.05c-51.96 0-93.95-42.03-93.95-94.03 0-51.99 41.99-94.02 93.95-94.02 51.96 0 93.95 42.03 93.95 94.02 0 52-41.99 94.03-93.95 94.03z"/>
		<path id="&lt;Path&gt;" class="s4" d="m277.45 71.01c0 55.29-32.96 107.65-87.26 129.74q0.04-0.06 0.07-0.11-0.31-0.17-0.62-0.33-0.3-0.74-0.59-1.5h2.5v-31c0-17.16-3.09-33.59-8.73-48.78 9.47-43.82 39.75-82.32 84.42-100.36 6.93 17.16 10.21 34.9 10.21 52.34z"/>
		<path id="&lt;Path&gt;" class="s2" d="m190.26 200.64q-0.04 0.05-0.07 0.11-0.16 0.07-0.32 0.14-0.12-0.29-0.23-0.58 0.31 0.16 0.62 0.33z"/>
		<path id="&lt;Path&gt;" class="s4" d="m190.19 200.75c-25.18 47.19-73.53 74.07-123.51 74.07-22.2 0-44.72-5.3-65.68-16.47 22.57-42.38 63.8-68.41 108.15-73.33 18.34 8.84 38.9 13.79 60.62 13.79h16.94q1.47 0.73 2.93 1.5 0.11 0.29 0.23 0.58 0.16-0.07 0.32-0.14z"/>
		<path id="&lt;Path&gt;" class="s2" d="m190.26 200.64q-0.04 0.05-0.07 0.11-0.16 0.07-0.32 0.14-0.12-0.29-0.23-0.58 0.31 0.16 0.62 0.33z"/>
		<path id="&lt;Path&gt;" class="s0" d="m191.55 167.81v31h-2.5c-10.16-26.37-11.8-54-6.23-79.78 5.64 15.19 8.73 31.62 8.73 48.78z"/>
		<path id="&lt;Path&gt;" class="s0" d="m186.71 198.81h-16.94c-21.72 0-42.28-4.95-60.62-13.79 25.82-2.87 52.7 1.41 77.56 13.79z"/>
		<path id="&lt;Path&gt;" class="s2" d="m189.05 198.81h-2.34c-24.86-12.38-51.74-16.66-77.56-13.79-46.9-22.6-79.28-70.62-79.28-126.21v-31h21.78c60.12 0 111.38 37.95 131.17 91.22-5.57 25.78-3.93 53.41 6.23 79.78z"/>
		<path id="&lt;Path&gt;" fill-rule="evenodd" class="s5" d="m176.09 284.96c-48.2 0-87.17-37.58-87.17-84.07 0-46.5 38.97-84.08 87.17-84.08 48.2 0 87.16 37.58 87.16 84.08 0 46.49-38.96 84.07-87.16 84.07z"/>
	</g>
</svg>