<svg version="1.2" xmlns="http://www.w3.org/2000/svg" viewBox="0 0 300 300" width="300" height="300">
	<style>
		.s0 { fill: #b4d99b } 
		.s1 { fill: #f6df5c } 
		.s2 { fill: #54ba65 } 
		.s3 { fill: #064b2c } 
		.s4 { fill: #264396 } 
		.s5 { fill: #1a7bbf } 
		.s6 { fill: #5baee0 } 
		.s7 { opacity: .11;fill: #fefefe } 
		.s8 { fill: #25aae1 } 
	</style>
	<g id="&lt;Group&gt;">
		<g id="&lt;Group&gt;">
			<path id="&lt;Path&gt;" class="s0" d="m299 14.19v161.91c0 66.42-54.07 120.26-120.77 120.26h-177.23v-161.91c0-66.42 54.07-120.26 120.77-120.26z"/>
		</g>
		<path id="&lt;Path&gt;" class="s1" d="m299 14.19v161.91c0 66.42-54.43 120.26-121.58 120.26h-39.29v-282.17z"/>
		<path id="&lt;Path&gt;" class="s2" d="m299 184.66c-1.62 19.93-7.84 38.56-17.58 54.78-9.99 16.61-23.67 30.71-39.9 41.12-14.83 9.52-31.78 15.96-49.98 18.44l-24.4-118.67h130.63z"/>
		<path id="&lt;Path&gt;" fill-rule="evenodd" class="s2" d="m97.26 188.24c-51.77 0-93.62-41.85-93.62-93.62 0-51.77 41.85-93.62 93.62-93.62 51.77 0 93.62 41.85 93.62 93.62 0 51.77-41.85 93.62-93.62 93.62z"/>
		<path id="&lt;Path&gt;" class="s3" d="m299 173.73q0 5.26-0.43 10.42l-1.23-4.31h-131.23l24.51 118.03q-8.29 1.13-16.89 1.13c-69.18 0-125.26-56.09-125.26-125.27 0-69.18 56.08-125.26 125.26-125.26 69.18 0 125.27 56.08 125.27 125.26z"/>
		<path id="&lt;Path&gt;" class="s4" d="m130 89.9c-5.58 0.13-15.77 10.68-19.63 13.95-13.68 11.58-25.49 25.67-33.34 41.86-22.8 47.1-5.44 103.84 36.29 133.53 36.99 26.31 82.09 24.87 121.55 4.4-0.89-0.44 66.71-35.75 43.42-131.62-23.36-96.19-65.64-64.14-65.64-64.14 0 0-82.6 2.02-82.65 2.02z"/>
		<path id="&lt;Path&gt;" class="s5" d="m136.47 84.63c-6.73 2.59-11.7 7.62-17.88 13.68-10.15 9.96-19.44 20.9-26.66 33.17-9.54 16.2-15.39 34.92-14.33 53.67 0.99 17.58 7.98 34.45 17.88 49.03 6.66 9.81 14.7 18.76 24.11 26.01 18.31 14.11 41.77 21.42 64.88 20.22 18.42-0.95 36.41-7.16 52.07-16.88 8.28-5.13 16-11.28 22.23-18.75 6.55-7.86 11.36-17.05 14.79-26.67 6.47-18.16 8.07-37.83 6.32-57.02-1.23-13.47-4.23-27.17-11.82-38.38-8.44-12.48-21.87-20.84-35.85-26.52-26.56-10.79-55.77-13.07-84.44-13.43-4.4-0.06-8.06 0.62-11.31 1.87z"/>
		<path id="&lt;Path&gt;" class="s6" d="m272.04 197.98c-5.7 17.19-15.24 33.35-28.88 45.22-13.54 11.77-30.82 18.99-48.63 20.96-6.9 0.76-13.89 0.74-20.79-0.04-11.87-1.33-23.5-4.9-34.03-10.56-17.17-9.2-31.31-23.8-40.51-41.02q-2.8-5.24-4.97-10.78c-4.84-12.44-7.13-25.88-5.85-39.15 2.74-28.64 22.22-56.6 44.04-74.48 13.76-11.29 29.89-20.51 44.59-30.55q15.91-10.88 31.83-21.75l0.01-0.01q6.84-4.67 13.68-9.34c2.16-1.48 22.19-13.46 21.85-14.93 8.39 36.37 16.79 72.74 26.13 108.88 3.2 12.35 6.52 24.78 7.24 37.51 0.77 13.55-1.45 27.17-5.71 40.04z"/>
		<path id="&lt;Path&gt;" fill-rule="evenodd" class="s7" d="m126.27 291.09c-45.94 0-83.08-37.72-83.08-84.39 0-46.67 37.14-84.39 83.08-84.39 45.93 0 83.07 37.72 83.07 84.39 0 46.67-37.14 84.39-83.07 84.39z"/>
		<path id="&lt;Path&gt;" class="s8" d="m175.75 263.18c0.19 0.37-0.44 0.9-1.66 1.54-11.92-1.34-23.59-4.93-34.17-10.61-17.24-9.25-31.44-23.93-40.68-41.23q-2.81-5.26-4.98-10.84c-4.87-12.5-7.17-26.01-5.88-39.34 2.75-28.78 22.32-56.88 44.22-74.86 13.82-11.34 30.01-20.61 44.77-30.7q15.98-10.93 31.97-21.86c-1.21 1.12-104.54 97.63-33.59 227.9z"/>
	</g>
</svg>