<svg version="1.2" xmlns="http://www.w3.org/2000/svg" viewBox="0 0 383 480" width="383" height="480">
	<style>
		.s0 { fill: #000000 } 
		.s1 { fill: #dc3a34 } 
		.s2 { fill: #f1ca4f } 
		.s3 { fill: #603519 } 
		.s4 { fill: #efca4f } 
		.s5 { fill: #f7f2d4 } 
		.s6 { fill: #6cbe59 } 
		.s7 { fill: #5d923f } 
		.s8 { fill: #63381b } 
		.s9 { fill: #0e6847 } 
		.s10 { fill: #269f55 } 
		.s11 { fill: #6dbf59 } 
		.s12 { fill: #ea9a7e } 
		.s13 { fill: #f7f1d5 } 
		.s14 { fill: #0d6644 } 
		.s15 { fill: #f6f2d5 } 
	</style>
	<g id="Ambos copy">
		<path id="&lt;Path&gt;" class="s0" d="m168.41 103.84q-0.53 0.76-1.22 1.28c-0.76 0.57-1.64 0.97-2.6 1.24-0.32 0.1-0.65 0.14-0.97 0.21-0.62 0.14-0.89 0.49-0.76 1.13l0.16 0.82c0.67 3.61-2.76 7.31-6.92 6.22-0.22-0.05-0.45-0.1-0.86-0.19-0.71 1.25-1.45 2.5-2.11 3.79-0.64 1.25-1.2 2.55-1.77 3.85-0.14 0.34-0.27 0.73-0.27 1.08q-0.01 1.22-0.01 2.43-1.02-0.47-1.95-1.07 0.01-0.06 0.01-0.13c0-1.47-1.35-2.65-3.02-2.65h-0.05c-0.4-0.63-0.63-1.32-0.5-2.04 1.15-0.25 2.37-0.51 3.28-1.27 0.93-0.75 1.43-2.13 0.82-3.15-0.51-0.84-1.59-1.15-2.58-1.17-0.98-0.03-1.99 0.14-2.95-0.08-2.13-0.46-3.33-2.52-4.64-4.06-1.65-1.98-3.73-2.93-6.33-2.94-2.64-0.02-5.33 0.69-7.93 1.24q-0.04-0.56 0.02-1.1 0.1-0.81 0.28-1.54c0.76-3.11 2.77-5.17 6.06-6.07q1.1-0.3 2.39-0.42c1.81-0.18 3.67 0.12 5.5 0.2 0.37 0.02 0.74 0.05 1.39 0.09-0.11-0.77-0.17-1.33-0.29-1.86q-0.15-0.63-0.1-1.29c0.18-3.23 3.57-6.52 7.64-4.91 1.09 0.44 1.11 0.39 1.67-0.96 1.24-3.07 4.57-4.66 7.65-3.66 2.51 0.81 4.16 3.04 4.38 5.88q0.02 0.43 0 0.84c0 0.69 0.35 0.93 0.99 0.86q0.5-0.06 0.99-0.06c2.24-0.03 3.94 0.95 4.98 2.91 1.17 2.22 1.07 4.45-0.38 6.55z"/>
		<path id="&lt;Path&gt;" class="s1" d="m149.17 124.5q0.01 0.07 0 0.13c-0.08 1.4-1.39 2.51-3.01 2.51-1.67 0-3.02-1.18-3.02-2.64 0-1.46 1.32-2.63 2.97-2.65h0.05c1.67 0 3.01 1.18 3.01 2.65z"/>
		<path id="&lt;Path&gt;" class="s2" d="m138.64 135.94l10.53-1.52 1.9 0.76 49.32 41.08c0 0 16.07 12.12 13.8 27.73 0.3 0.15-0.76 16.98-21.22 23.34 0.15 0.31-13.15 0.46-13.15 0.46h-78.78c0 0-23.64-3.41-24.89-28.65-0.24-4.81 3.03-10 5.7-13.67 6.82-9.38 17.18-16.59 26.08-23.94q15.41-12.72 30.71-25.59z"/>
		<path id="&lt;Path&gt;" class="s3" d="m151.18 143.65c-0.05 2.79-1.67 5.09-4.05 5.95-2.58 0.95-5.46 0.28-7.26-1.72-1-1.09-1.53-2.4-1.54-3.86-0.01-1.22 0.1-2.45 0.2-3.67 0.1-1.18 0.29-2.34 0.36-3.52 0.05-0.82-0.17-1.02-0.97-1.05-0.52-0.02-1.04 0.06-1.55 0.11-3.88 0.44-7.05-0.9-9.55-3.84-0.91-1.09-1.42-2.44-1.59-3.88-0.21-1.75-0.13-3.48 0.4-5.18 0.2-0.66 0.17-1.17-0.49-1.58-0.34-0.21-0.63-0.56-0.85-0.92-0.48-0.8-0.36-1.22 0.39-1.8q0.23-0.16 0.48-0.32c1.12-0.7 1.58-1.72 1.34-3.01-0.27-1.45-0.64-2.86-0.87-4.31-0.14-0.88-0.34-1.78-0.39-2.67 2.6-0.55 5.29-1.26 7.93-1.24 2.6 0.01 4.68 0.96 6.33 2.94 1.31 1.54 2.51 3.6 4.64 4.06 0.96 0.22 1.97 0.05 2.95 0.08 0.99 0.02 2.07 0.33 2.58 1.17 0.61 1.02 0.11 2.4-0.82 3.15-0.91 0.76-2.13 1.02-3.28 1.27-0.13 0.72 0.1 1.41 0.5 2.04-1.64 0.02-2.97 1.19-2.97 2.65 0 1.46 1.35 2.64 3.02 2.64 1.63 0 2.94-1.11 3.01-2.51q0.93 0.6 1.95 1.07-0.02 5.37 0 10.73c0.01 2.41 0.14 4.82 0.1 7.22z"/>
		<path id="&lt;Path&gt;" class="s4" d="m218.13 205.96l-10.69 66.84-20.26 77.05-13.05 44.81h32.29l27.05-105.72-12.73 106.63h26.63c3.33 0 6.12-2.54 6.42-5.85l15-161.93-9.87-22.93-39.88-0.72z"/>
		<path id="&lt;Path&gt;" class="s5" d="m190.39 376.25h-31.53c-2.11 0-3.89-1.59-4.12-3.69l-7.09-64.52-1.36 68.21h-31.58c-1.63 0-2.92-1.36-2.86-2.98l4.57-110.7 3.34-10.53 54.72-6.52z"/>
		<path id="&lt;Path&gt;" class="s6" d="m183.51 250.48l-74.79 13.47c-0.2 0.04-0.39-0.09-0.43-0.29l-14.31-79.46c-0.04-0.2 0.1-0.39 0.3-0.43l74.78-13.47c0.21-0.04 0.4 0.1 0.43 0.29l14.32 79.46c0.04 0.2-0.1 0.4-0.3 0.43z"/>
		<path id="&lt;Path&gt;" class="s3" d="m165.18 217.05q-1.52 0.08-3.05 0.14c-1.22 0.05-2.45 0.16-3.68 0.11-1.56-0.05-2.3-0.99-2.15-2.52 0.07-0.8 0.48-1.34 1.21-1.58 1.44-0.45 2.89-0.85 4.34-1.25 0.36-0.09 0.73-0.11 1.13-0.44q-0.55-0.07-1.11-0.14c-1.54-0.18-3.09-0.34-4.63-0.54-1-0.12-1.62-0.73-1.83-1.71-0.18-0.83 0.16-1.63 0.96-2.02 0.58-0.28 1.25-0.43 1.89-0.53 1.54-0.22 3.09-0.38 4.63-0.57 0.12-0.02 0.23-0.11 0.56-0.27-1.07-0.31-1.95-0.58-2.84-0.84-0.36-0.1-0.73-0.16-1.1-0.26q-2.26-0.61-1.99-2.46c0.21-1.36 1.2-2.04 2.82-1.87q2.68 0.3 5.34 0.67 4.42 0.61 8.83 1.22c0.18 0.03 0.37-0.02 0.75-0.04q-0.09-0.93-0.19-1.79c-0.14-1.16 0.15-1.53 1.3-1.37 3.25 0.45 6.43 1.25 9.3 2.83 4.15 2.28 5.92 6.08 6.04 10.67 0.06 2.11-0.81 3.92-2.3 5.46-2.15 2.23-4.81 3.26-7.81 3.59-3.98 0.44-7.97 0.9-11.97 1.28-2.34 0.22-4.7 0.31-7.06 0.46q-0.42 0.03-0.85 0c-1.2-0.1-1.81-0.58-2.07-1.59-0.28-1.1 0.02-1.92 1.11-2.48 1-0.52 2.06-0.92 3.11-1.35 0.43-0.18 0.88-0.3 1.32-0.45q0-0.18-0.01-0.36z"/>
		<path id="&lt;Path&gt;" class="s3" d="m109.06 187.45c0 0.98 0.03 1.96 0 2.95-0.03 0.7-0.05 1.42-0.21 2.09-0.2 0.85-0.82 1.36-1.69 1.53-0.82 0.16-1.5-0.15-1.98-0.8-0.4-0.56-0.7-1.19-1.23-1.77q0.01 0.95 0 1.9c-0.04 1.24-0.54 1.92-1.58 2.23-1.08 0.32-2.04-0.01-2.62-1.12-0.47-0.9-0.74-1.9-1.15-2.99-0.12 1.2 0.09 2.38-0.7 3.32-0.15 0.18-0.24 0.4-0.41 0.57-0.41 0.43-0.82 0.37-1.21-0.06q-0.05-0.05-0.08-0.11c-1.81-3.17-3.43-6.4-3.36-10.2 0.06-3.04 1.49-5.28 4.31-6.35 2.52-0.95 5.18-1.47 7.87-1.58 2.7-0.1 5.02 0.88 6.63 3.12 1.04 1.45 1.96 2.98 2.93 4.49q0.57 0.89 1.09 1.81c0.23 0.41 0.47 0.82 0.61 1.27 0.36 1.14 0.03 2.14-0.85 2.76-0.84 0.59-2.03 0.61-2.9-0.09-0.91-0.75-1.73-1.59-2.57-2.42-0.23-0.22-0.37-0.52-0.55-0.79q-0.17 0.12-0.35 0.24z"/>
		<path id="&lt;Path&gt;" class="s3" d="m145.67 377.91q-0.26 23.64-0.54 47.29-0.04 3.15-0.12 6.29h-23.35l-3.02-4.13q0.2-0.08 0.38-0.17c1.4-0.67 2.82-1.34 4.14-2.15 4.41-2.71 7.04-6.57 6.97-11.86-0.12-8.68-0.38-17.36-0.61-26.04-0.09-3.11-0.27-6.23-0.4-9.34-0.02-0.41 0-0.83 0-1.46 0.64-0.04 1.1-0.09 1.56-0.09q6.66 0 13.32 0.01 0.42 0 0.84 0.02c0.5 0.02 0.8 0.26 0.81 0.78q0.03 0.42 0.02 0.85z"/>
		<path id="&lt;Path&gt;" class="s3" d="m203.57 426.34q-10.22 5.2-20.45 10.39c0-1.86-0.68-3.94-0.99-5.77q-0.51-2.99-1.02-5.97-1.01-5.96-2.03-11.92-3.14-18.41-6.27-36.82h17.09c1.42 10.32 2.81 20.67 4.05 31.03 0.59 4.81 1.28 9.94 4.46 13.59 1.66 1.88 3.92 3.28 5.16 5.47z"/>
		<path id="&lt;Path&gt;" class="s7" d="m183.32 436.73l-1.22-7.17c0 0 7.01 2.83 9.86 2.08 0.23 0 1.51-7.95 11.82-4.92 0-0.38 8.64 4.47 8.49 7.2-0.19 3.43-4.54 2.88-6.9 2.92-2.84 0.05-5.69 0.02-8.54 0.01-0.93 0-13.44 0.27-13.51-0.12z"/>
		<path id="&lt;Path&gt;" class="s7" d="m145.01 431.49q-0.06 1.66-0.09 3.33c-0.01 0.56-0.09 1.11-0.15 1.79-0.59 0.04-1.09 0.12-1.59 0.12q-14.08 0.01-28.15 0-8.16-0.01-16.32-0.01c-0.47 0-0.97 0.06-1.41-0.07-0.71-0.2-1.48-0.41-2.04-0.84-1.64-1.28-1.3-3.51 0.64-4.31 0.68-0.29 1.46-0.4 2.2-0.47 1.92-0.21 3.87-0.24 5.78-0.52 2.33-0.33 4.64-0.82 6.95-1.28q3.06-0.6 6.09-1.3 0.63-0.14 1.24-0.38h0.02q0.23-0.08 0.46-0.19l3.02 4.13z"/>
		<path id="&lt;Compound Path&gt;" class="s8" d="m225.33 88.94q-0.85 0.1-1.63 0.32c2.94-0.24 5.93 0.19 8.69 1.24-2.12-1.55-4.5-1.86-7.06-1.56z"/>
		<path id="&lt;Compound Path&gt;" class="s9" d="m308.52 152.06c-2.91 0.28-5.95-0.88-7.88-3.07-1.94-2.2-2.7-5.39-1.91-8.21 0.29-0.99 0.74-1.93 1.19-2.85q1.54-3.17 3.09-6.34c0.87-1.77 1.75-3.62 1.81-5.59 0.04-1.17-0.22-2.34-0.49-3.49q-0.95-4.11-2.01-8.2c0.17 1.01 0.23 2.03 0.09 3.08-0.15 1.13-0.51 1.58-1.63 1.81-0.78 0.17-1.59 0.3-2.36 0.49-4.88 1.21-8.13 4.25-9.77 8.97-0.52 1.47-0.83 3-1.16 4.52-0.93 4.34-1.82 8.68-2.75 13.03q-0.41 2-0.91 4c-0.28 1.08-0.69 1.3-1.76 1.06q-0.34-0.09-0.68-0.22-5.17-1.71-10.34-3.43c-6.94-2.32-13.86-4.7-20.83-6.94-8.18-2.62-16.38-5.12-24.59-7.64q-0.79-0.25-1.3-0.73l3.08 6.45q0.21 0.29 0.35 0.56 1.12 2.21 2.17 4.46 6.59 13.8 13.17 27.61c3.6 7.54 7.23 15.08 10.79 22.64q2.5 5.31 4.94 10.65l0.09 0.18q1.56 3.39 3.12 6.77c1.85 3.98 3.73 7.95 5.55 11.94 1.39 3.01 1.55 6.2 1.2 9.44q-0.49 4.72-0.97 9.44c-0.03 0.39 0.06 0.79 0.09 1.24 1.45-0.05 2.5-0.74 3.63-1.15 3.32-1.19 5.3-3.65 6.4-6.9 1.33-3.94 0.9-7.73-0.91-11.41-1.01-2.08-2.09-4.13-3.11-6.21q-5.91-12.25-11.81-24.49-4.67-9.7-9.36-19.39c-1.98-4.08-4-8.13-5.99-12.21-0.21-0.43-0.32-0.91-0.57-1.68 0.7 0.14 1.11 0.16 1.47 0.3q2.73 0.99 5.44 2.02 13.33 5.02 26.66 10.01c2.56 0.97 5.14 1.9 7.9 2.14 3.96 0.34 7.31-0.71 9.59-4.17q1.76-2.67 3.44-5.37 3.48-5.59 6.93-11.21c0.57-0.93 1.26-1.51 2.46-1.61 1.83-0.16 3.4-1 4.82-2.2 1.27-1.07 2.26-2.37 3.17-3.71-2.71 2.75-5.79 5.24-9.55 5.61z"/>
		<path id="&lt;Compound Path&gt;" fill-rule="evenodd" class="s10" d="m351 117.88c-0.57 0.66-0.69 1.33-0.16 2.06 1.78 2.38 1.22 4.79 0.12 7.21-1.83 3.98-5.14 6.19-9.1 7.59-2.84 1.01-5.77 1.73-8.82 1.93-2.25 0.15-4.5 0.55-6.75 0.79-1.66 0.17-2.96 0.91-3.88 2.29-1.08 1.61-2.1 3.25-3.15 4.87q-0.58 0.91-1.18 1.81 0 0.01-0.01 0.02c-2.71 2.75-5.79 5.24-9.55 5.61-2.91 0.28-5.95-0.88-7.88-3.07-1.94-2.2-2.7-5.39-1.91-8.21 0.29-0.99 0.74-1.93 1.19-2.85q1.54-3.17 3.09-6.34c0.87-1.77 1.75-3.62 1.81-5.59 0.04-1.17-0.22-2.34-0.49-3.49q-0.95-4.11-2.01-8.2-0.01-0.02-0.01-0.03-0.21-1.08-0.54-2.17c-1.34-4.4-1.79-8.88-0.72-13.41 0.62-2.64 1.89-4.91 4.15-6.55 2.66-1.91 5.88-1.51 7.96 1.02 0.89 1.09 1.36 1.06 2.06-0.19 1.39-2.48 3.44-4.25 5.93-5.51 2.37-1.21 4.91-1.08 7.33-0.38 1.84 0.55 3.62 0.88 5.54 0.72 2.09-0.16 4.16 0.27 6.09 1.07 2.99 1.23 5 3.49 6.3 6.4 0.67 1.46 1.11 3.01 0.97 4.66q-0.14 1.43 1.14 2.08c4.89 2.48 5.75 7.53 4.54 12.03-0.39 1.45-1.1 2.71-2.06 3.83zm-10.57-2.69c-0.26-0.63-0.9-1.02-1.58-0.92-0.41 0.06-0.82 0.2-1.22 0.36-2.71 0.97-5.42 1.94-8.11 2.96-1.88 0.71-3.74 1.51-5.61 2.27q-0.1-0.08-0.21-0.16c0.19-0.36 0.36-0.74 0.58-1.08q4.95-7.5 9.87-15c0.24-0.37 0.38-0.86 0.43-1.31 0.08-0.55-0.12-1.13-0.69-1.26-0.44-0.11-1.04-0.04-1.42 0.19-0.47 0.28-0.85 0.76-1.16 1.22q-5.83 9.04-11.63 18.1-3.42 5.36-6.87 10.71-3.71 5.69-7.44 11.36-0.17 0.24-0.28 0.49c-0.29 0.69-0.06 1.49 0.53 1.9 0.59 0.4 1.19 0.29 1.71-0.11 0.32-0.26 0.6-0.61 0.83-0.95 0.97-1.46 1.91-2.93 2.88-4.39 2.99-4.46 6.02-8.9 8.98-13.38 0.98-1.48 2.22-2.55 3.85-3.21 1.26-0.52 2.53-1.05 3.81-1.53q5.72-2.08 11.44-4.15c0.3-0.11 0.62-0.26 0.87-0.46 0.52-0.42 0.71-0.99 0.44-1.65z"/>
		<path id="&lt;Path&gt;" class="s11" d="m339.99 116.84c-0.25 0.2-0.57 0.35-0.87 0.46q-5.72 2.07-11.44 4.15c-1.28 0.48-2.55 1.01-3.81 1.53-1.63 0.66-2.87 1.73-3.85 3.21-2.96 4.48-5.99 8.92-8.98 13.38-0.97 1.46-1.91 2.93-2.88 4.39-0.23 0.34-0.51 0.69-0.83 0.95-0.52 0.4-1.12 0.51-1.71 0.11-0.59-0.41-0.82-1.21-0.53-1.9q0.11-0.25 0.28-0.49 3.73-5.67 7.44-11.36 3.45-5.35 6.87-10.71 5.8-9.06 11.63-18.1c0.31-0.46 0.69-0.94 1.16-1.22 0.38-0.23 0.98-0.3 1.42-0.19 0.57 0.13 0.77 0.71 0.69 1.26-0.05 0.45-0.19 0.94-0.43 1.31q-4.92 7.5-9.87 15c-0.22 0.34-0.39 0.72-0.58 1.08q0.11 0.08 0.21 0.16c1.87-0.76 3.73-1.56 5.61-2.27 2.69-1.02 5.4-1.99 8.11-2.96 0.4-0.16 0.81-0.3 1.22-0.36 0.68-0.1 1.32 0.29 1.58 0.92 0.27 0.66 0.08 1.23-0.44 1.65z"/>
		<path id="&lt;Path&gt;" class="s12" d="m234.74 123.93c0.16 1.93-1.3 3.72-3.16 4.39-1.97 0.71-3.99 1.12-6.09 1.1q-0.5 0-0.99 0.12c-0.75 0.2-1.07 0.75-0.87 1.51q0.21 0.75 0.69 1.23l0.01 0.03 3.08 6.45q-0.29-0.36-0.69-0.9c-0.17 0.6-0.3 0.88-0.32 1.16-0.07 0.76-0.07 1.52-0.12 2.27-0.16 2.1-2.29 4.89-4.86 5.28-2.46 0.38-4.57-0.21-6.37-1.93-0.43-0.41-0.88-0.79-1.37-1.25-0.24 0.31-0.32 0.59-0.32 0.85l-3.74-15.4c0.03-0.4 0.11-0.63 0.07-0.83q-0.03-0.09-0.05-0.18c0.41-0.17 0.74-0.68 0.99-1.2 0.18-0.4 0.31-0.8 0.4-1.08 0.58-1.9 0.52-3.85-0.03-5.78-0.17-0.57-0.37-1.14-0.73-1.6-0.9-1.19-2.88-0.36-3.28-2.03-0.26-1.08 0.12-2.9 1.16-3.48 1.06-0.62 2.58-0.23 3.23 0.81 0.56 0.92 0.48 2.15 1.15 3 0.66 0.85 2.16 0.96 2.78 0.07 0.43-0.62 0.33-1.44 0.23-2.19-0.37-2.43-1.13-5.13-0.08-7.53 1.01-2.34 3.13-3.82 5.5-4.57 1.19-0.38 2.4-0.56 3.64-0.72 0.47-0.06 4.78-0.72 4.85-0.43q0.33 1.57 0.99 3.04-0.57 0.54-0.41 1.46c0.15 0.93 0.32 1.86 0.44 2.79 0.12 0.84 0.55 1.36 1.34 1.65q0.82 0.29 1.54 0.73c0.59 0.37 0.64 0.81 0.09 1.25-0.35 0.28-0.81 0.46-1.24 0.63-0.98 0.39-1.1 0.62-0.69 1.57 0.77 1.78 1.66 3.5 2.29 5.33 0.49 1.4 0.82 2.9 0.94 4.38z"/>
		<path id="&lt;Path&gt;" class="s8" d="m234.98 98.97c-0.71 2.04-2.02 3.74-4 4.77q-0.32 0.17-0.54 0.4-0.66-1.47-0.99-3.04c-0.07-0.29-4.38 0.37-4.85 0.43-1.24 0.16-2.45 0.34-3.64 0.72-2.37 0.75-4.49 2.23-5.5 4.57-1.05 2.4-0.29 5.1 0.08 7.53 0.1 0.75 0.2 1.57-0.23 2.19-0.62 0.89-2.12 0.78-2.78-0.07-0.67-0.85-0.59-2.08-1.15-3-0.65-1.04-2.17-1.43-3.23-0.81-1.04 0.58-1.42 2.4-1.16 3.48 0.4 1.67 2.38 0.84 3.28 2.03 0.36 0.46 0.56 1.03 0.73 1.6 0.55 1.93 0.61 3.88 0.03 5.78-0.09 0.28-0.22 0.68-0.4 1.08-0.25 0.52-0.58 1.03-0.99 1.2q-1.07-4.45-2.16-8.9c-0.22-0.92-0.77-1.57-1.52-2.14-4.87-3.68-5.86-9.96-3.2-14.85 1.71-3.15 4.58-4.97 8.11-5.64 1.81-0.33 3.64-0.53 5.48-0.69 1.17-0.1 1.88-0.6 2.31-1.71 0.97-2.47 2.7-3.98 5.04-4.64 2.94-0.24 5.93 0.19 8.69 1.24q0.15 0.11 0.3 0.23c2.69 2.15 3.43 4.98 2.29 8.24z"/>
		<path id="&lt;Path&gt;" class="s13" d="m258.92 204.86h-30.81l-14.75-60.61v-0.01c0-0.26 0.08-0.54 0.32-0.85 0.49 0.46 0.94 0.84 1.37 1.25 1.8 1.72 3.91 2.31 6.37 1.93 2.57-0.39 4.7-3.18 4.86-5.28 0.05-0.75 0.05-1.51 0.12-2.27 0.02-0.28 0.15-0.56 0.32-1.16q0.4 0.54 0.69 0.9l31.42 65.92z"/>
		<path id="&lt;Path&gt;" class="s14" d="m223.8 244.17c-2.11 0.63-4.23 1.09-6.42 0.86-5.14-0.53-10.28-0.29-15.4-0.04-3.87 0.18-6.69-2.66-7.54-5.18-0.44-1.32-0.8-2.76-0.81-4.14-0.02-2.64 0.26-5.28 0.39-7.91 0.04-0.69 0.56-0.79 1.04-0.99 1.78-0.76 3.61-1.42 5.31-2.34 7.31-3.95 12.04-9.98 13.76-18.11 1.75-8.23-0.39-15.61-5.76-22.07-3.55-4.27-7.69-7.92-11.98-11.41-3.55-2.89-7.04-5.86-10.55-8.8-1.31-1.1-1.4-1.69-0.37-3.11 0.85-1.2 1.82-2.29 2.71-3.46q3.66-4.78 7.3-9.58c0.91-1.19 0.87-1.43-0.41-2.14-1.03-0.58-2.09-1.13-3.07-1.78-1.09-0.73-2.22-1.47-3.16-2.36-4-3.83-4.02-10.21-0.09-13.94 2.12-2.02 4.75-2.74 7.59-2.33 2.09 0.29 4.16 0.83 6.2 1.4 1.9 0.54 3.76 1.25 5.65 1.86 0.42 0.14 0.88 0.15 1.43 0.24l3.74 15.4v0.01c0 0.32 0.12 0.61 0.19 0.89q0.97 4.14 1.98 8.26 4.69 19.49 9.43 38.97 1.55 6.25 3.15 12.49 0.7 2.74 1.38 5.5c1.1 4.45 2.1 8.91 3.16 13.37 0.3 1.24 0.65 2.47 0.97 3.7 1.99 7.75-3.37 14.8-9.82 16.74z"/>
		<path id="&lt;Path&gt;" class="s5" d="m218.13 436.73c0 0 47.44 0.21 47.44 0.21 1.33 0 1.8-1.85 1.4-3.13-0.7-2.21-2.76-2.73-4.76-2.99-4.22-0.55-8.35-1.54-12.49-2.47-2.86-0.64-5.75-1.4-8.31-2.86-2.37-1.36-3.48-3.18-5.02-5.37-1.24-1.75-1.49-4.01-1.69-6.15q-0.35-3.58-0.7-7.17-3.53-0.39-7.06-0.78c-1.62-0.18-5.22-1.29-6.69-0.48-1.3 0.72-0.75 4.29-0.83 5.75q-0.39 7.64-0.78 15.28c-0.03 0.59-0.44 10.16-0.51 10.16z"/>
		<path id="&lt;Path&gt;" class="s12" d="m220.74 395.57l-1.1 11.37h14.1l1.06-11.37z"/>
		<path id="&lt;Path&gt;" class="s12" d="m175.27 394.66l-1.93 12.28h4.7l-2.09-12.28z"/>
		<path id="&lt;Path&gt;" class="s5" d="m173.34 406.94l-4.34 27.96c-0.15 0.96 0.6 1.83 1.57 1.83h12.75l-5.28-29.79z"/>
		<path id="&lt;Path&gt;" class="s15" d="m165.62 190.43l-20.78 3.74c-0.15 0.03-0.29-0.07-0.32-0.23l-2.22-12.33c-0.03-0.15 0.07-0.29 0.22-0.32l20.78-3.75c0.15-0.02 0.3 0.08 0.33 0.23l2.22 12.33c0.03 0.15-0.08 0.3-0.23 0.33z"/>
	</g>
</svg>