<svg version="1.2" xmlns="http://www.w3.org/2000/svg" viewBox="0 0 383 480" width="1000" height="1253">
	<style>
		.s0 { fill: #000000 } 
		.s1 { fill: #dc3a34 } 
		.s2 { fill: #f1ca4f } 
		.s3 { fill: #603519 } 
		.s4 { fill: #efca4f } 
		.s5 { fill: #f7f2d4 } 
		.s6 { fill: #6cbe59 } 
		.s7 { fill: #5d923f } 
		.s8 { fill: #63381b } 
		.s9 { fill: #0e6847 } 
		.s10 { fill: #269f55 } 
		.s11 { fill: #6dbf59 } 
		.s12 { fill: #ea9a7e } 
		.s13 { fill: #f7f1d5 } 
		.s14 { fill: #0d6644 } 
		.s15 { fill: #f6f2d5 } 
	</style>
	<g id="Ambos copy">
		<path id="&lt;Path&gt;" class="s0" d="m151.9 104.21q-0.52 0.75-1.22 1.27c-0.75 0.58-1.63 0.97-2.59 1.24-0.32 0.1-0.64 0.14-0.96 0.21-0.62 0.14-0.89 0.48-0.76 1.12l0.16 0.82c0.67 3.6-2.75 7.28-6.89 6.19-0.22-0.05-0.45-0.09-0.86-0.18-0.7 1.24-1.43 2.48-2.09 3.77-0.64 1.25-1.2 2.54-1.77 3.84-0.14 0.33-0.27 0.72-0.27 1.07q-0.01 1.21-0.01 2.42-1.01-0.47-1.94-1.07 0.01-0.06 0.01-0.12c0-1.47-1.34-2.65-3.01-2.65h-0.04c-0.4-0.62-0.63-1.31-0.51-2.03 1.15-0.25 2.36-0.5 3.27-1.26 0.93-0.74 1.43-2.13 0.82-3.14-0.51-0.84-1.59-1.14-2.57-1.17-0.98-0.02-1.98 0.14-2.94-0.07-2.12-0.46-3.32-2.51-4.62-4.05-1.65-1.97-3.72-2.91-6.31-2.93-2.63-0.02-5.31 0.69-7.9 1.24q-0.03-0.55 0.03-1.1 0.09-0.8 0.27-1.53c0.77-3.1 2.76-5.15 6.04-6.04q1.09-0.31 2.38-0.43c1.8-0.17 3.65 0.13 5.48 0.21 0.37 0.02 0.74 0.04 1.39 0.09-0.12-0.78-0.17-1.32-0.3-1.86q-0.15-0.63-0.09-1.28c0.17-3.22 3.55-6.5 7.6-4.89 1.09 0.44 1.11 0.39 1.66-0.96 1.24-3.06 4.56-4.64 7.63-3.64 2.49 0.8 4.14 3.02 4.36 5.85q0.02 0.43 0 0.84c-0.01 0.69 0.35 0.93 0.99 0.85q0.49-0.05 0.98-0.06c2.23-0.02 3.92 0.95 4.96 2.9 1.17 2.22 1.06 4.44-0.38 6.53z"/>
		<path id="&lt;Path&gt;" class="s1" d="m132.74 124.79q0.01 0.06 0 0.12c-0.08 1.4-1.38 2.51-3 2.51-1.66 0-3.01-1.18-3.01-2.63 0-1.46 1.32-2.63 2.96-2.65h0.05c1.66 0 3 1.18 3 2.65z"/>
		<path id="&lt;Path&gt;" class="s2" d="m122.25 136.18l10.49-1.51 1.89 0.75 49.13 40.91c0 0 16 12.08 13.73 27.63 0.31 0.15-0.75 16.9-21.13 23.24 0.15 0.31-13.1 0.46-13.1 0.46h-78.45c0 0-23.55-3.4-24.8-28.53-0.24-4.8 3.02-9.96 5.68-13.62 6.79-9.35 17.11-16.52 25.98-23.84q15.35-12.67 30.58-25.49z"/>
		<path id="&lt;Path&gt;" class="s3" d="m134.74 143.86c-0.05 2.78-1.66 5.07-4.03 5.93-2.57 0.95-5.44 0.27-7.24-1.72-0.99-1.09-1.51-2.39-1.53-3.85-0.01-1.21 0.11-2.43 0.2-3.65 0.1-1.17 0.29-2.33 0.36-3.5 0.05-0.82-0.17-1.02-0.97-1.05-0.51-0.02-1.03 0.05-1.54 0.11-3.86 0.43-7.02-0.9-9.51-3.82-0.91-1.1-1.42-2.43-1.59-3.87-0.21-1.74-0.12-3.47 0.4-5.16 0.21-0.66 0.17-1.16-0.48-1.57-0.34-0.21-0.63-0.56-0.85-0.91-0.48-0.8-0.36-1.22 0.39-1.81q0.23-0.15 0.47-0.31c1.12-0.7 1.58-1.72 1.34-3-0.26-1.44-0.64-2.85-0.87-4.29-0.14-0.87-0.33-1.77-0.39-2.66 2.59-0.55 5.27-1.26 7.9-1.24 2.59 0.02 4.66 0.96 6.31 2.93 1.3 1.54 2.5 3.59 4.62 4.05 0.96 0.21 1.96 0.05 2.94 0.07 0.98 0.03 2.06 0.33 2.57 1.17 0.61 1.01 0.11 2.4-0.82 3.14-0.91 0.76-2.12 1.01-3.27 1.26-0.12 0.72 0.11 1.41 0.51 2.03-1.65 0.02-2.97 1.19-2.97 2.65 0 1.45 1.35 2.63 3.01 2.63 1.62 0 2.93-1.11 3-2.51q0.93 0.6 1.94 1.07-0.02 5.35 0 10.69c0.01 2.39 0.14 4.8 0.1 7.19z"/>
		<path id="&lt;Path&gt;" class="s4" d="m201.42 205.92l-10.64 66.57-20.19 76.74-12.99 44.63h32.16l26.94-105.29-12.68 106.2h26.53c3.32 0 6.09-2.53 6.39-5.83l14.94-161.28-9.83-22.84-39.73-0.71z"/>
		<path id="&lt;Path&gt;" class="s5" d="m173.79 375.52h-31.4c-2.1 0-3.87-1.58-4.1-3.68l-7.06-64.25-1.36 67.93h-31.45c-1.62 0-2.91-1.35-2.85-2.97l4.55-110.25 3.33-10.49 54.5-6.49z"/>
		<path id="&lt;Path&gt;" class="s6" d="m166.94 250.26l-74.48 13.42c-0.2 0.04-0.4-0.1-0.43-0.3l-14.26-79.13c-0.04-0.21 0.1-0.4 0.3-0.43l74.48-13.42c0.2-0.04 0.4 0.1 0.43 0.29l14.26 79.14c0.04 0.2-0.1 0.4-0.3 0.43z"/>
		<path id="&lt;Path&gt;" class="s3" d="m148.69 216.96q-1.52 0.08-3.04 0.14c-1.22 0.05-2.45 0.16-3.66 0.11-1.56-0.05-2.29-0.98-2.15-2.5 0.07-0.8 0.48-1.35 1.21-1.58 1.43-0.45 2.88-0.85 4.32-1.24 0.36-0.1 0.73-0.12 1.12-0.44q-0.55-0.08-1.1-0.15c-1.54-0.17-3.08-0.33-4.62-0.53-0.99-0.13-1.61-0.73-1.82-1.71-0.17-0.82 0.16-1.62 0.96-2 0.58-0.28 1.24-0.44 1.88-0.53 1.54-0.23 3.08-0.38 4.62-0.58 0.12-0.01 0.23-0.1 0.55-0.26-1.07-0.32-1.94-0.58-2.82-0.84-0.37-0.1-0.74-0.16-1.1-0.26q-2.25-0.61-1.98-2.45c0.2-1.35 1.19-2.03 2.81-1.86q2.66 0.29 5.32 0.66 4.39 0.61 8.79 1.22c0.18 0.03 0.36-0.01 0.75-0.04q-0.1-0.93-0.19-1.78c-0.14-1.15 0.15-1.52 1.29-1.37 3.24 0.45 6.4 1.25 9.27 2.82 4.13 2.27 5.89 6.06 6.01 10.63 0.06 2.1-0.81 3.91-2.29 5.44-2.14 2.22-4.79 3.25-7.78 3.58-3.97 0.43-7.94 0.89-11.92 1.27-2.34 0.22-4.69 0.31-7.03 0.46q-0.43 0.03-0.85-0.01c-1.19-0.09-1.8-0.57-2.06-1.58-0.28-1.09 0.02-1.9 1.1-2.47 1-0.52 2.06-0.91 3.1-1.34 0.43-0.18 0.88-0.3 1.32-0.45q-0.01-0.18-0.01-0.36z"/>
		<path id="&lt;Path&gt;" class="s3" d="m92.8 187.48c0 0.98 0.02 1.96-0.01 2.94-0.02 0.69-0.04 1.41-0.21 2.09-0.2 0.84-0.82 1.34-1.68 1.51-0.82 0.16-1.5-0.14-1.97-0.8-0.4-0.55-0.7-1.18-1.23-1.75q0.02 0.94 0 1.88c-0.04 1.24-0.53 1.92-1.58 2.23-1.07 0.32-2.03-0.01-2.6-1.11-0.47-0.9-0.74-1.9-1.15-2.99-0.11 1.21 0.09 2.37-0.69 3.31-0.15 0.18-0.25 0.4-0.41 0.57-0.41 0.43-0.82 0.37-1.21-0.05q-0.04-0.06-0.08-0.12c-1.8-3.16-3.42-6.38-3.34-10.16 0.06-3.03 1.48-5.26 4.28-6.32 2.52-0.95 5.17-1.46 7.85-1.57 2.68-0.11 4.99 0.87 6.6 3.11 1.04 1.44 1.96 2.96 2.92 4.46q0.57 0.89 1.09 1.81c0.23 0.4 0.46 0.82 0.6 1.26 0.36 1.14 0.03 2.14-0.84 2.75-0.84 0.58-2.03 0.61-2.89-0.09-0.91-0.74-1.73-1.59-2.56-2.41-0.23-0.22-0.37-0.52-0.55-0.79q-0.17 0.12-0.34 0.24z"/>
		<path id="&lt;Path&gt;" class="s3" d="m129.26 377.18q-0.27 23.54-0.54 47.1-0.05 3.13-0.13 6.26h-23.25l-3.01-4.11q0.2-0.08 0.38-0.17c1.4-0.67 2.81-1.33 4.13-2.14 4.39-2.7 7-6.55 6.93-11.81-0.11-8.65-0.37-17.3-0.6-25.95-0.09-3.09-0.27-6.19-0.4-9.29-0.02-0.42 0-0.83 0-1.45 0.64-0.05 1.1-0.1 1.55-0.1q6.64 0 13.27 0.01 0.41 0.01 0.84 0.02c0.5 0.02 0.79 0.26 0.81 0.78q0.02 0.42 0.02 0.85z"/>
		<path id="&lt;Path&gt;" class="s3" d="m186.92 425.41q-10.18 5.18-20.37 10.35c0-1.85-0.67-3.93-0.99-5.75q-0.5-2.97-1.01-5.94-1.01-5.94-2.02-11.88-3.13-18.34-6.25-36.67h17.03c1.41 10.29 2.79 20.59 4.03 30.91 0.59 4.79 1.27 9.89 4.45 13.53 1.65 1.88 3.9 3.27 5.13 5.45z"/>
		<path id="&lt;Path&gt;" class="s7" d="m166.75 435.76l-1.21-7.14c0 0 6.98 2.82 9.82 2.07 0.23 0 1.5-7.92 11.77-4.9 0-0.38 8.61 4.45 8.46 7.17-0.19 3.42-4.52 2.86-6.87 2.9-2.84 0.05-5.67 0.03-8.51 0.02-0.93-0.01-13.39 0.27-13.46-0.12z"/>
		<path id="&lt;Path&gt;" class="s7" d="m128.59 430.54q-0.05 1.66-0.09 3.32c-0.01 0.56-0.09 1.11-0.14 1.78-0.59 0.04-1.09 0.12-1.59 0.12q-14.02 0.01-28.03-0.01-8.13 0-16.26-0.01c-0.47 0-0.96 0.07-1.41-0.06-0.7-0.2-1.47-0.4-2.03-0.84-1.63-1.28-1.28-3.49 0.64-4.29 0.68-0.29 1.46-0.4 2.19-0.47 1.92-0.21 3.86-0.24 5.76-0.52 2.32-0.32 4.63-0.81 6.92-1.27q3.05-0.6 6.07-1.3 0.63-0.14 1.23-0.37l0.02-0.01q0.24-0.08 0.46-0.18l3.01 4.11z"/>
		<path id="&lt;Compound Path&gt;" class="s8" d="m208.6 89.36q-0.86 0.11-1.63 0.32c2.93-0.23 5.91 0.2 8.66 1.25-2.11-1.55-4.49-1.86-7.03-1.57z"/>
		<path id="&lt;Compound Path&gt;" class="s9" d="m291.45 152.23c-2.9 0.29-5.93-0.87-7.85-3.06-1.93-2.19-2.69-5.36-1.9-8.17 0.28-0.99 0.74-1.92 1.18-2.84q1.54-3.16 3.08-6.31c0.87-1.77 1.74-3.61 1.8-5.57 0.04-1.17-0.22-2.33-0.48-3.47q-0.95-4.1-2.01-8.17c0.17 1 0.23 2.01 0.09 3.07-0.15 1.12-0.5 1.57-1.62 1.8-0.78 0.17-1.58 0.29-2.35 0.49-4.86 1.2-8.1 4.23-9.73 8.93-0.52 1.46-0.83 2.99-1.15 4.5-0.93 4.32-1.82 8.65-2.74 12.98q-0.41 1.99-0.92 3.98c-0.27 1.07-0.68 1.29-1.74 1.06q-0.35-0.09-0.68-0.22-5.15-1.7-10.3-3.42c-6.91-2.31-13.8-4.68-20.75-6.91-8.14-2.61-16.31-5.1-24.49-7.61q-0.78-0.24-1.29-0.73l3.06 6.43q0.21 0.28 0.36 0.55 1.11 2.2 2.15 4.45 6.57 13.74 13.12 27.5c3.59 7.51 7.2 15.01 10.75 22.54q2.49 5.3 4.92 10.62l0.09 0.17q1.55 3.37 3.11 6.75c1.84 3.96 3.71 7.91 5.53 11.89 1.38 2.99 1.54 6.17 1.19 9.4q-0.49 4.7-0.96 9.4c-0.04 0.39 0.05 0.79 0.09 1.24 1.43-0.05 2.48-0.75 3.6-1.15 3.31-1.18 5.29-3.63 6.38-6.88 1.32-3.91 0.9-7.69-0.9-11.36-1.01-2.07-2.09-4.11-3.1-6.18q-5.89-12.2-11.77-24.39-4.64-9.66-9.32-19.31c-1.97-4.06-3.98-8.1-5.96-12.16-0.21-0.44-0.32-0.92-0.57-1.68 0.7 0.14 1.1 0.16 1.47 0.3q2.71 0.98 5.42 2.01 13.27 5 26.54 9.98c2.55 0.95 5.13 1.88 7.88 2.12 3.93 0.34 7.28-0.71 9.55-4.15q1.74-2.66 3.42-5.35 3.46-5.57 6.9-11.16c0.57-0.93 1.26-1.51 2.46-1.6 1.81-0.16 3.38-1.01 4.79-2.19 1.27-1.08 2.26-2.36 3.16-3.7-2.69 2.74-5.76 5.22-9.51 5.58z"/>
		<path id="&lt;Compound Path&gt;" fill-rule="evenodd" class="s10" d="m333.76 118.2c-0.57 0.65-0.69 1.32-0.16 2.04 1.77 2.37 1.21 4.78 0.11 7.19-1.81 3.95-5.11 6.16-9.05 7.55-2.84 1.01-5.76 1.73-8.79 1.93-2.24 0.15-4.48 0.54-6.72 0.78-1.65 0.18-2.96 0.91-3.87 2.29-1.07 1.59-2.09 3.23-3.14 4.85q-0.58 0.91-1.17 1.8 0 0.01-0.01 0.02c-2.69 2.74-5.76 5.22-9.51 5.58-2.9 0.29-5.93-0.87-7.85-3.06-1.93-2.19-2.69-5.36-1.9-8.17 0.28-0.99 0.74-1.92 1.18-2.84q1.54-3.16 3.08-6.31c0.87-1.77 1.74-3.61 1.8-5.57 0.04-1.17-0.22-2.33-0.48-3.47q-0.95-4.1-2.01-8.17-0.01-0.02-0.01-0.04-0.21-1.07-0.54-2.15c-1.33-4.38-1.78-8.85-0.72-13.36 0.63-2.63 1.89-4.89 4.15-6.52 2.64-1.91 5.85-1.51 7.92 1.02 0.88 1.08 1.35 1.04 2.05-0.2 1.39-2.46 3.43-4.23 5.91-5.49 2.36-1.2 4.89-1.07 7.3-0.37 1.83 0.54 3.6 0.87 5.52 0.72 2.08-0.16 4.14 0.26 6.06 1.06 2.98 1.23 4.99 3.48 6.28 6.37 0.67 1.46 1.1 3.01 0.96 4.65q-0.14 1.42 1.14 2.06c4.87 2.48 5.72 7.5 4.52 11.99-0.39 1.44-1.09 2.7-2.05 3.82zm-10.53-2.68c-0.26-0.63-0.89-1.02-1.58-0.92-0.41 0.06-0.81 0.2-1.21 0.35-2.7 0.98-5.4 1.93-8.07 2.95-1.88 0.71-3.73 1.5-5.59 2.26q-0.11-0.07-0.21-0.15c0.19-0.36 0.35-0.74 0.57-1.08q4.94-7.47 9.84-14.94c0.24-0.37 0.37-0.86 0.42-1.3 0.08-0.56-0.12-1.13-0.68-1.27-0.44-0.1-1.04-0.03-1.42 0.2-0.47 0.28-0.85 0.75-1.15 1.21q-5.8 9.01-11.58 18.03-3.41 5.34-6.85 10.67-3.69 5.67-7.4 11.31-0.17 0.24-0.29 0.49c-0.28 0.69-0.06 1.48 0.53 1.89 0.59 0.4 1.18 0.29 1.71-0.11 0.32-0.26 0.59-0.6 0.82-0.95 0.97-1.44 1.9-2.92 2.87-4.36 2.98-4.44 5.99-8.87 8.94-13.33 0.98-1.47 2.21-2.55 3.84-3.2 1.25-0.52 2.51-1.05 3.79-1.52q5.7-2.07 11.4-4.14c0.3-0.11 0.61-0.26 0.86-0.45 0.52-0.43 0.71-0.99 0.44-1.64z"/>
		<path id="&lt;Path&gt;" class="s11" d="m322.79 117.16c-0.25 0.19-0.56 0.34-0.86 0.45q-5.7 2.07-11.4 4.14c-1.28 0.47-2.54 1-3.79 1.52-1.63 0.65-2.86 1.73-3.84 3.2-2.95 4.46-5.96 8.89-8.94 13.33-0.97 1.44-1.9 2.92-2.87 4.36-0.23 0.35-0.5 0.69-0.82 0.95-0.53 0.4-1.12 0.51-1.71 0.11-0.59-0.41-0.81-1.2-0.53-1.89q0.12-0.25 0.29-0.49 3.71-5.64 7.4-11.31 3.44-5.33 6.85-10.67 5.78-9.02 11.58-18.03c0.3-0.46 0.68-0.93 1.15-1.21 0.38-0.23 0.98-0.3 1.42-0.2 0.56 0.14 0.76 0.71 0.68 1.27-0.05 0.44-0.18 0.93-0.42 1.3q-4.9 7.47-9.84 14.94c-0.22 0.34-0.38 0.72-0.57 1.08q0.1 0.08 0.21 0.15c1.86-0.76 3.71-1.55 5.59-2.26 2.67-1.02 5.37-1.97 8.07-2.95 0.4-0.15 0.8-0.29 1.21-0.35 0.69-0.1 1.32 0.29 1.58 0.92 0.27 0.65 0.08 1.21-0.44 1.64z"/>
		<path id="&lt;Path&gt;" class="s12" d="m217.97 124.22c0.15 1.92-1.3 3.7-3.15 4.37-1.97 0.71-3.97 1.12-6.07 1.1q-0.49-0.01-0.98 0.11c-0.75 0.21-1.07 0.75-0.87 1.5q0.21 0.75 0.68 1.24l0.02 0.02 3.06 6.43q-0.28-0.36-0.68-0.9c-0.17 0.6-0.3 0.88-0.32 1.16-0.07 0.75-0.07 1.51-0.13 2.25-0.15 2.1-2.27 4.88-4.83 5.27-2.45 0.37-4.56-0.21-6.35-1.92-0.42-0.41-0.87-0.79-1.36-1.25-0.23 0.31-0.31 0.59-0.31 0.85l-3.74-15.35c0.04-0.39 0.12-0.62 0.07-0.82q-0.02-0.09-0.04-0.18c0.41-0.17 0.73-0.67 0.98-1.2 0.18-0.39 0.31-0.79 0.4-1.07 0.58-1.9 0.52-3.84-0.03-5.75-0.17-0.57-0.37-1.14-0.73-1.6-0.9-1.18-2.87-0.35-3.26-2.02-0.26-1.08 0.12-2.89 1.15-3.47 1.05-0.61 2.57-0.23 3.22 0.81 0.56 0.91 0.48 2.14 1.14 2.99 0.66 0.85 2.16 0.95 2.78 0.07 0.42-0.62 0.33-1.44 0.22-2.19-0.36-2.42-1.13-5.1-0.08-7.49 1.01-2.33 3.12-3.8 5.48-4.56 1.19-0.38 2.4-0.56 3.63-0.72 0.46-0.05 4.76-0.7 4.82-0.42q0.33 1.56 1 3.02-0.57 0.54-0.41 1.46c0.14 0.93 0.31 1.85 0.43 2.78 0.12 0.84 0.55 1.36 1.34 1.64q0.81 0.29 1.53 0.73c0.59 0.37 0.64 0.81 0.09 1.24-0.35 0.29-0.8 0.46-1.24 0.63-0.97 0.39-1.09 0.62-0.68 1.57 0.76 1.77 1.65 3.49 2.28 5.3 0.49 1.4 0.82 2.9 0.94 4.37z"/>
		<path id="&lt;Path&gt;" class="s8" d="m218.21 99.36c-0.71 2.03-2.01 3.72-3.99 4.75q-0.32 0.17-0.53 0.39-0.67-1.46-1-3.02c-0.06-0.28-4.36 0.37-4.82 0.42-1.23 0.16-2.44 0.34-3.63 0.72-2.36 0.76-4.47 2.23-5.48 4.56-1.05 2.39-0.28 5.07 0.08 7.49 0.11 0.75 0.2 1.57-0.22 2.19-0.62 0.88-2.12 0.78-2.78-0.07-0.66-0.85-0.58-2.08-1.14-2.99-0.65-1.04-2.17-1.42-3.22-0.81-1.03 0.58-1.41 2.39-1.15 3.47 0.39 1.67 2.36 0.84 3.26 2.02 0.36 0.46 0.56 1.03 0.73 1.6 0.55 1.91 0.61 3.85 0.03 5.75-0.09 0.28-0.22 0.68-0.4 1.07-0.25 0.53-0.57 1.03-0.98 1.2q-1.07-4.43-2.16-8.87c-0.22-0.91-0.76-1.56-1.5-2.12-4.86-3.67-5.85-9.92-3.2-14.8 1.71-3.13 4.57-4.95 8.08-5.61 1.8-0.33 3.63-0.53 5.46-0.68 1.17-0.11 1.87-0.61 2.3-1.72 0.97-2.45 2.69-3.95 5.02-4.62 2.93-0.23 5.91 0.2 8.66 1.25q0.14 0.1 0.29 0.22c2.69 2.14 3.42 4.96 2.29 8.21z"/>
		<path id="&lt;Path&gt;" class="s13" d="m242.05 204.82h-30.69l-14.68-60.36v-0.01c0-0.26 0.08-0.54 0.31-0.85 0.49 0.46 0.94 0.84 1.36 1.25 1.79 1.71 3.9 2.29 6.35 1.92 2.56-0.39 4.68-3.17 4.83-5.27 0.06-0.74 0.06-1.5 0.13-2.25 0.02-0.28 0.15-0.56 0.32-1.16q0.4 0.54 0.68 0.9l31.3 65.66z"/>
		<path id="&lt;Path&gt;" class="s14" d="m207.07 243.97c-2.1 0.63-4.21 1.09-6.4 0.86-5.11-0.53-10.23-0.29-15.34-0.04-3.85 0.18-6.66-2.65-7.5-5.16-0.44-1.32-0.8-2.75-0.81-4.12-0.02-2.63 0.26-5.26 0.39-7.88 0.04-0.69 0.55-0.79 1.03-0.99 1.78-0.75 3.6-1.41 5.3-2.32 7.27-3.94 11.99-9.94 13.7-18.04 1.74-8.21-0.39-15.55-5.74-21.99-3.54-4.24-7.65-7.88-11.93-11.36-3.54-2.88-7.01-5.83-10.51-8.77-1.3-1.09-1.39-1.67-0.37-3.09 0.85-1.19 1.82-2.28 2.71-3.44q3.63-4.77 7.26-9.55c0.91-1.19 0.87-1.42-0.4-2.13-1.03-0.58-2.08-1.12-3.06-1.77-1.09-0.73-2.21-1.46-3.15-2.36-3.98-3.81-4.01-10.16-0.09-13.88 2.11-2.01 4.73-2.73 7.56-2.32 2.08 0.29 4.14 0.83 6.17 1.4 1.9 0.53 3.75 1.24 5.63 1.85 0.42 0.14 0.88 0.15 1.42 0.23l3.74 15.35v0.01c0 0.32 0.11 0.6 0.18 0.88q0.97 4.12 1.97 8.23 4.67 19.41 9.39 38.81 1.55 6.22 3.14 12.44 0.7 2.73 1.38 5.48c1.09 4.43 2.09 8.87 3.15 13.32 0.3 1.23 0.64 2.45 0.96 3.68 1.98 7.72-3.36 14.75-9.78 16.67z"/>
		<path id="&lt;Path&gt;" class="s5" d="m201.42 435.76c0 0 47.25 0.21 47.25 0.21 1.33 0 1.8-1.85 1.39-3.12-0.69-2.2-2.74-2.71-4.73-2.98-4.2-0.55-8.32-1.53-12.45-2.45-2.84-0.64-5.73-1.4-8.27-2.86-2.36-1.35-3.46-3.16-5-5.34-1.24-1.75-1.48-3.99-1.69-6.13q-0.34-3.57-0.69-7.14-3.52-0.39-7.03-0.78c-1.62-0.18-5.2-1.28-6.66-0.47-1.3 0.71-0.76 4.26-0.83 5.72q-0.39 7.61-0.78 15.22c-0.03 0.59-0.44 10.12-0.51 10.12z"/>
		<path id="&lt;Path&gt;" class="s12" d="m204.02 394.77l-1.09 11.32h14.04l1.05-11.32z"/>
		<path id="&lt;Path&gt;" class="s12" d="m158.74 393.86l-1.93 12.23h4.68l-2.08-12.23z"/>
		<path id="&lt;Path&gt;" class="s5" d="m156.81 406.09l-4.32 27.85c-0.15 0.96 0.6 1.82 1.57 1.82h12.69l-5.26-29.67z"/>
		<path id="&lt;Path&gt;" class="s15" d="m149.12 190.45l-20.69 3.72c-0.15 0.03-0.3-0.07-0.32-0.22l-2.22-12.28c-0.02-0.15 0.08-0.3 0.23-0.32l20.69-3.73c0.16-0.03 0.3 0.07 0.33 0.22l2.21 12.28c0.03 0.15-0.07 0.3-0.23 0.33z"/>
	</g>
</svg>